<svg width="46" height="46" viewBox="0 0 46 46" fill="none" xmlns="http://www.w3.org/2000/svg">
<path d="M25.1248 4.25401L37.3776 10.8604C38.808 11.6321 38.808 13.8342 37.3776 14.6059L25.1248 21.2122C24.0331 21.7957 22.7532 21.7957 21.6616 21.2122L9.40877 14.6059C7.97833 13.8342 7.97833 11.6321 9.40877 10.8604L21.6616 4.25401C22.7532 3.67054 24.0331 3.67054 25.1248 4.25401Z" stroke="white" stroke-width="2.60606" stroke-linecap="round" stroke-linejoin="round"/>
<path d="M7.60449 19.066L18.9915 24.769C20.4031 25.4842 21.3066 26.9334 21.3066 28.5145V39.2804C21.3066 40.8426 19.6691 41.8401 18.2763 41.1437L6.88927 35.4408C5.47765 34.7256 4.57422 33.2763 4.57422 31.6953V20.9294C4.57422 19.3672 6.21169 18.3696 7.60449 19.066Z" stroke="white" stroke-width="2.60606" stroke-linecap="round" stroke-linejoin="round"/>
<path d="M39.1845 19.066L27.7975 24.769C26.3859 25.4842 25.4824 26.9334 25.4824 28.5145V39.2804C25.4824 40.8426 27.1199 41.8401 28.5127 41.1437L39.8997 35.4408C41.3113 34.7256 42.2148 33.2763 42.2148 31.6953V20.9294C42.2148 19.3672 40.5773 18.3696 39.1845 19.066Z" stroke="white" stroke-width="2.60606" stroke-linecap="round" stroke-linejoin="round"/>
</svg>
