<svg width="11" height="18" viewBox="0 0 11 18" fill="none" xmlns="http://www.w3.org/2000/svg">
<g clip-path="url(#clip0_2005_7936)">
<path d="M2.70711 1.29289C2.31658 0.902369 1.68342 0.902369 1.29289 1.29289C0.902369 1.68342 0.902369 2.31658 1.29289 2.70711L2.70711 1.29289ZM9 9L9.70711 9.70711C10.0976 9.31658 10.0976 8.68342 9.70711 8.29289L9 9ZM1.29289 15.2929C0.902369 15.6834 0.902369 16.3166 1.29289 16.7071C1.68342 17.0976 2.31658 17.0976 2.70711 16.7071L1.29289 15.2929ZM1.29289 2.70711L8.29289 9.70711L9.70711 8.29289L2.70711 1.29289L1.29289 2.70711ZM8.29289 8.29289L1.29289 15.2929L2.70711 16.7071L9.70711 9.70711L8.29289 8.29289Z" fill="#2EAADA"/>
</g>
<defs>
<clipPath id="clip0_2005_7936">
<rect width="11" height="18" fill="white"/>
</clipPath>
</defs>
</svg>
