<svg width="37" height="43" viewBox="0 0 37 43" fill="none" xmlns="http://www.w3.org/2000/svg">
<path fill-rule="evenodd" clip-rule="evenodd" d="M11.3682 10C6.60682 10 2.58086 13.5248 1.95158 18.2444L0.0849098 32.2444C-0.674436 37.9395 3.75608 43 9.50157 43H27.2266C32.9721 43 37.4027 37.9395 36.6433 32.2444L34.7766 18.2444C34.1474 13.5248 30.1214 10 25.36 10H11.3682ZM8.86426 9.5C8.86426 4.25329 13.1176 0 18.3643 0C23.611 0 27.8643 4.25329 27.8643 9.5V15.5C27.8643 16.3284 27.1927 17 26.3643 17C25.5358 17 24.8643 16.3284 24.8643 15.5V9.5C24.8643 5.91015 21.9541 3 18.3643 3C14.7744 3 11.8643 5.91015 11.8643 9.5V15.5C11.8643 16.3284 11.1927 17 10.3643 17C9.53583 17 8.86426 16.3284 8.86426 15.5V9.5ZM18.4249 32.5607C17.8391 33.1464 16.8894 33.1464 16.3036 32.5607L12.3036 28.5607C11.7178 27.9749 11.7178 27.0251 12.3036 26.4393C12.8894 25.8536 13.8391 25.8536 14.4249 26.4393L17.3643 29.3787L24.3036 22.4393C24.8894 21.8536 25.8391 21.8536 26.4249 22.4393C27.0107 23.0251 27.0107 23.9749 26.4249 24.5607L18.4249 32.5607Z" fill="#585858"/>
</svg>
