<svg width="48" height="48" viewBox="0 0 48 48" fill="none" xmlns="http://www.w3.org/2000/svg">
<path d="M30.7071 26.7071C31.0976 26.3166 31.0976 25.6834 30.7071 25.2929C30.3166 24.9024 29.6834 24.9024 29.2929 25.2929L30.7071 26.7071ZM22 34L21.2929 34.7071C21.6834 35.0976 22.3166 35.0976 22.7071 34.7071L22 34ZM18.7071 29.2929C18.3166 28.9024 17.6834 28.9024 17.2929 29.2929C16.9024 29.6834 16.9024 30.3166 17.2929 30.7071L18.7071 29.2929ZM29.2929 25.2929L21.2929 33.2929L22.7071 34.7071L30.7071 26.7071L29.2929 25.2929ZM22.7071 33.2929L18.7071 29.2929L17.2929 30.7071L21.2929 34.7071L22.7071 33.2929Z" fill="#2EAADA"/>
<path d="M36 42H12C10.8954 42 10 41.1046 10 40L10 8C10 6.89543 10.8954 6 12 6L27.1262 6C27.6833 6 28.2152 6.23239 28.5937 6.64119L37.4675 16.2249C37.8098 16.5946 38 17.0799 38 17.5837L38 40C38 41.1046 37.1046 42 36 42Z" stroke="#2EAADA" stroke-width="2" stroke-linecap="round" stroke-linejoin="round"/>
<path d="M38 18L28 18C26.8954 18 26 17.1046 26 16L26 6" stroke="#2EAADA" stroke-width="2" stroke-linecap="round" stroke-linejoin="round"/>
</svg>
