<svg width="43" height="43" viewBox="0 0 43 43" fill="none" xmlns="http://www.w3.org/2000/svg">
<path d="M20.4722 3.50022C20.9385 2.72523 22.0621 2.72523 22.5285 3.50021L27.7254 12.1356C27.8929 12.4141 28.1662 12.6126 28.4828 12.6859L38.3015 14.96C39.1827 15.1641 39.5299 16.2326 38.9369 16.9157L32.3301 24.5267C32.1171 24.7721 32.0127 25.0934 32.0408 25.4171L32.9122 35.4579C32.9904 36.359 32.0814 37.0195 31.2486 36.6666L21.9684 32.7351C21.6692 32.6083 21.3314 32.6083 21.0322 32.7351L11.7521 36.6666C10.9192 37.0195 10.0103 36.3591 10.0885 35.4579L10.9599 25.4171C10.988 25.0934 10.8836 24.7721 10.6706 24.5267L4.06371 16.9157C3.47078 16.2326 3.81798 15.1641 4.69916 14.96L14.5179 12.6859C14.8344 12.6126 15.1077 12.4141 15.2753 12.1356L20.4722 3.50022Z" fill="#6D6D6D" stroke="#6D6D6D" stroke-width="1.5"/>
</svg>
