<svg width="48" height="48" viewBox="0 0 48 48" fill="none" xmlns="http://www.w3.org/2000/svg">
<path d="M28 31C27.4477 31 27 31.4477 27 32C27 32.5523 27.4477 33 28 33V31ZM38 32H39C39 31.4477 38.5523 31 38 31V32ZM37 42C37 42.5523 37.4477 43 38 43C38.5523 43 39 42.5523 39 42H37ZM28 33H38V31H28V33ZM37 32V42H39V32H37Z" fill="#2EAADA"/>
<path d="M9.16504 29.9937C10.2864 32.7691 12.1639 35.1744 14.5841 36.936C17.0043 38.6976 19.8702 39.745 22.856 39.959C25.8418 40.173 28.8278 39.5451 31.4745 38.1467C34.1213 36.7483 36.3226 34.6354 37.8284 32.0483" stroke="#2EAADA" stroke-width="2" stroke-linecap="round" stroke-linejoin="round"/>
<path d="M20 17C20.5523 17 21 16.5523 21 16C21 15.4477 20.5523 15 20 15V17ZM10 16H9C9 16.5523 9.44772 17 10 17V16ZM11 6C11 5.44772 10.5523 5 10 5C9.44772 5 9 5.44772 9 6H11ZM20 15H10V17H20V15ZM11 16V6H9V16H11Z" fill="#2EAADA"/>
<path d="M38.8352 18.0063C37.7138 15.2308 35.8364 12.8256 33.4161 11.0639C30.9959 9.30232 28.13 8.25498 25.1442 8.04095C22.1584 7.82693 19.1725 8.45481 16.5257 9.85323C13.879 11.2516 11.6776 13.3645 10.1719 15.9517" stroke="#2EAADA" stroke-width="2" stroke-linecap="round" stroke-linejoin="round"/>
</svg>
