<svg width="48" height="48" viewBox="0 0 48 48" fill="none" xmlns="http://www.w3.org/2000/svg">
<path d="M6 38C6 33.5817 11.3726 30 18 30C24.6274 30 30 33.5817 30 38" stroke="#2EAADA" stroke-width="2" stroke-linecap="round" stroke-linejoin="round"/>
<path d="M33.6563 10.3433C34.3991 11.0861 34.9884 11.968 35.3904 12.9386C35.7925 13.9093 35.9994 14.9495 35.9994 16.0001C35.9994 17.0507 35.7925 18.091 35.3904 19.0616C34.9884 20.0322 34.3991 20.9141 33.6562 21.657" stroke="#2EAADA" stroke-width="2" stroke-linecap="round" stroke-linejoin="round"/>
<path d="M18 24C22.4183 24 26 20.4183 26 16C26 11.5817 22.4183 8 18 8C13.5817 8 10 11.5817 10 16C10 20.4183 13.5817 24 18 24Z" stroke="#2EAADA" stroke-width="2" stroke-linecap="round" stroke-linejoin="round"/>
<path d="M38 6C39.3132 7.31322 40.3549 8.87223 41.0656 10.588C41.7763 12.3038 42.1421 14.1428 42.1421 16C42.1421 17.8572 41.7763 19.6962 41.0656 21.412C40.3549 23.1278 39.3132 24.6868 38 26" stroke="#2EAADA" stroke-width="2" stroke-linecap="round" stroke-linejoin="round"/>
</svg>
