<svg width="32" height="32" viewBox="0 0 32 32" fill="none" xmlns="http://www.w3.org/2000/svg">
<path d="M18.6665 20.3335C18.1142 20.3335 17.6665 20.7812 17.6665 21.3335C17.6665 21.8858 18.1142 22.3335 18.6665 22.3335V20.3335ZM25.3332 21.3335H26.3332C26.3332 20.7812 25.8855 20.3335 25.3332 20.3335V21.3335ZM24.3332 28.0002C24.3332 28.5524 24.7809 29.0002 25.3332 29.0002C25.8855 29.0002 26.3332 28.5524 26.3332 28.0002H24.3332ZM18.6665 22.3335H25.3332V20.3335H18.6665V22.3335ZM24.3332 21.3335V28.0002H26.3332V21.3335H24.3332Z" fill="#2EAADA"/>
<path d="M6.10986 19.9956C6.85744 21.8459 8.10911 23.4494 9.72259 24.6238C11.3361 25.7983 13.2467 26.4965 15.2372 26.6392C17.2277 26.7819 19.2184 26.3633 20.9828 25.431C22.7473 24.4987 24.2149 23.0901 25.2188 21.3653" stroke="#2EAADA" stroke-width="2" stroke-linecap="round" stroke-linejoin="round"/>
<path d="M13.3332 11.6667C13.8855 11.6667 14.3332 11.219 14.3332 10.6667C14.3332 10.1144 13.8855 9.66667 13.3332 9.66667V11.6667ZM6.6665 10.6667H5.6665C5.6665 11.219 6.11422 11.6667 6.6665 11.6667V10.6667ZM7.6665 4C7.6665 3.44772 7.21879 3 6.6665 3C6.11422 3 5.6665 3.44772 5.6665 4H7.6665ZM13.3332 9.66667H6.6665V11.6667H13.3332V9.66667ZM7.6665 10.6667V4H5.6665V10.6667H7.6665Z" fill="#2EAADA"/>
<path d="M25.8901 12.0044C25.1426 10.154 23.8909 8.55054 22.2774 7.37613C20.6639 6.20171 18.7534 5.50348 16.7628 5.3608C14.7723 5.21812 12.7816 5.6367 11.0172 6.56898C9.25267 7.50126 7.7851 8.90984 6.78125 10.6346" stroke="#2EAADA" stroke-width="2" stroke-linecap="round" stroke-linejoin="round"/>
</svg>
