<svg width="46" height="46" viewBox="0 0 46 46" fill="none" xmlns="http://www.w3.org/2000/svg">
<path d="M42.0824 32.3732C42.0824 34.0671 41.6118 35.6669 40.7649 37.0221C39.2027 39.6383 36.3418 41.4075 33.048 41.4075C29.7542 41.4075 26.8745 39.6383 25.3312 37.0221C24.503 35.6669 24.0137 34.0671 24.0137 32.3732C24.0137 27.3855 28.0603 23.3389 33.048 23.3389C38.0357 23.3389 42.0824 27.3855 42.0824 32.3732Z" stroke="white" stroke-width="1.30303" stroke-miterlimit="10" stroke-linecap="round" stroke-linejoin="round"/>
<path d="M29.5273 32.3733L31.7483 34.5942L36.5666 30.1523" stroke="white" stroke-width="1.30303" stroke-linecap="round" stroke-linejoin="round"/>
<path d="M42.0826 16.3558C42.0826 20.0636 41.1227 23.3385 39.6169 26.1806C37.9606 24.4302 35.6268 23.3386 33.0482 23.3386C28.0605 23.3386 24.0139 27.3852 24.0139 32.3729C24.0139 34.688 24.8985 36.796 26.3289 38.3958C25.6325 38.7158 24.9926 38.9793 24.4279 39.1675C23.788 39.3933 22.734 39.3933 22.0941 39.1675C16.6358 37.3041 4.43945 29.5309 4.43945 16.3558C4.43945 10.5399 9.12602 5.83447 14.9042 5.83447C18.3109 5.83447 21.36 7.49085 23.261 10.0318C25.162 7.49085 28.2111 5.83447 31.6178 5.83447C37.396 5.83447 42.0826 10.5399 42.0826 16.3558Z" stroke="white" stroke-width="2.60606" stroke-linecap="round" stroke-linejoin="round"/>
</svg>
