<svg width="48" height="48" viewBox="0 0 48 48" fill="none" xmlns="http://www.w3.org/2000/svg">
<path d="M28 31C27.4477 31 27 31.4477 27 32C27 32.5523 27.4477 33 28 33V31ZM38 32H39C39 31.4477 38.5523 31 38 31V32ZM37 42C37 42.5523 37.4477 43 38 43C38.5523 43 39 42.5523 39 42H37ZM28 33H38V31H28V33ZM37 32V42H39V32H37Z" fill="url(#paint0_linear_2081_7815)"/>
<path d="M9.16602 29.9941C10.2874 32.7696 12.1649 35.1749 14.5851 36.9365C17.0053 38.6981 19.8712 39.7455 22.857 39.9595C25.8428 40.1735 28.8288 39.5456 31.4755 38.1472C34.1222 36.7488 36.3236 34.6359 37.8294 32.0488" stroke="url(#paint1_linear_2081_7815)" stroke-width="2" stroke-linecap="round" stroke-linejoin="round"/>
<path d="M20 17C20.5523 17 21 16.5523 21 16C21 15.4477 20.5523 15 20 15V17ZM10 16H9C9 16.5523 9.44772 17 10 17V16ZM11 6C11 5.44772 10.5523 5 10 5C9.44772 5 9 5.44772 9 6H11ZM20 15H10V17H20V15ZM11 16V6H9V16H11Z" fill="url(#paint2_linear_2081_7815)"/>
<path d="M38.8352 18.0063C37.7138 15.2308 35.8364 12.8256 33.4161 11.0639C30.9959 9.30232 28.13 8.25498 25.1442 8.04095C22.1584 7.82693 19.1725 8.45481 16.5257 9.85323C13.879 11.2516 11.6776 13.3645 10.1719 15.9517" stroke="url(#paint3_linear_2081_7815)" stroke-width="2" stroke-linecap="round" stroke-linejoin="round"/>
<defs>
<linearGradient id="paint0_linear_2081_7815" x1="33" y1="32" x2="33" y2="42" gradientUnits="userSpaceOnUse">
<stop stop-color="#6595B0"/>
<stop offset="1" stop-color="white"/>
</linearGradient>
<linearGradient id="paint1_linear_2081_7815" x1="23.4977" y1="29.9941" x2="23.4977" y2="40.0004" gradientUnits="userSpaceOnUse">
<stop stop-color="#6595B0"/>
<stop offset="1" stop-color="white"/>
</linearGradient>
<linearGradient id="paint2_linear_2081_7815" x1="15" y1="6" x2="15" y2="16" gradientUnits="userSpaceOnUse">
<stop stop-color="#6595B0"/>
<stop offset="1" stop-color="white"/>
</linearGradient>
<linearGradient id="paint3_linear_2081_7815" x1="24.5035" y1="8" x2="24.5035" y2="18.0063" gradientUnits="userSpaceOnUse">
<stop stop-color="#6595B0"/>
<stop offset="1" stop-color="white"/>
</linearGradient>
</defs>
</svg>
