<svg width="32" height="32" viewBox="0 0 32 32" fill="none" xmlns="http://www.w3.org/2000/svg">
<path d="M16 26.6668L15.5134 27.5405C15.8159 27.7089 16.1841 27.7089 16.4866 27.5405L16 26.6668ZM16 9.54977L15.0797 9.94089C15.2365 10.3101 15.5989 10.5498 16 10.5498C16.4011 10.5498 16.7635 10.3101 16.9203 9.94089L16 9.54977ZM3 11.9633C3 16.4391 6.31031 20.3741 9.33471 23.0692C10.8787 24.4451 12.4181 25.5592 13.5693 26.3286C14.1459 26.714 14.6276 27.0145 14.9669 27.2197C15.1367 27.3223 15.271 27.4013 15.364 27.4551C15.4105 27.4821 15.4467 27.5028 15.4719 27.517C15.4844 27.5242 15.4942 27.5297 15.5012 27.5336C15.5047 27.5356 15.5074 27.5371 15.5095 27.5383C15.5105 27.5388 15.5113 27.5393 15.512 27.5397C15.5123 27.5399 15.5127 27.5401 15.5129 27.5401C15.5132 27.5403 15.5134 27.5405 16 26.6668C16.4866 25.7932 16.4867 25.7933 16.4869 25.7934C16.4869 25.7933 16.4869 25.7934 16.4869 25.7934C16.4868 25.7933 16.4866 25.7932 16.4861 25.7929C16.4853 25.7925 16.4837 25.7916 16.4814 25.7903C16.4768 25.7877 16.4694 25.7835 16.4593 25.7778C16.439 25.7663 16.4078 25.7485 16.3665 25.7245C16.2837 25.6765 16.1602 25.604 16.0018 25.5083C15.6849 25.3167 15.2291 25.0324 14.6807 24.6658C13.5819 23.9315 12.1213 22.8735 10.6653 21.576C7.68969 18.9244 5 15.5076 5 11.9633H3ZM16.9203 9.15866C15.4058 5.59473 11.9635 3.95736 8.85702 4.40612C7.2993 4.63115 5.82046 5.38261 4.73395 6.67746C3.64471 7.97557 3 9.75883 3 11.9633H5C5 10.1577 5.52195 8.84981 6.26605 7.96303C7.01287 7.073 8.03403 6.54577 9.14298 6.38557C11.3699 6.06388 13.9275 7.22982 15.0797 9.94089L16.9203 9.15866ZM27 11.9633C27 15.5076 24.3103 18.9244 21.3347 21.576C19.8787 22.8735 18.4181 23.9315 17.3193 24.6658C16.7709 25.0324 16.3151 25.3167 15.9982 25.5083C15.8398 25.604 15.7163 25.6765 15.6335 25.7245C15.5922 25.7485 15.561 25.7663 15.5407 25.7778C15.5306 25.7835 15.5232 25.7877 15.5186 25.7903C15.5163 25.7916 15.5147 25.7925 15.5139 25.7929C15.5134 25.7932 15.5132 25.7933 15.5131 25.7934C15.5131 25.7934 15.5131 25.7933 15.5131 25.7934C15.5133 25.7933 15.5134 25.7932 16 26.6668C16.4866 27.5405 16.4868 27.5403 16.4871 27.5401C16.4873 27.5401 16.4877 27.5399 16.488 27.5397C16.4887 27.5393 16.4895 27.5388 16.4905 27.5383C16.4926 27.5371 16.4953 27.5356 16.4988 27.5336C16.5058 27.5297 16.5156 27.5242 16.5281 27.517C16.5533 27.5028 16.5895 27.4821 16.636 27.4551C16.729 27.4013 16.8633 27.3223 17.0331 27.2197C17.3724 27.0145 17.8541 26.714 18.4307 26.3286C19.5819 25.5592 21.1213 24.4451 22.6653 23.0692C25.6897 20.3741 29 16.4391 29 11.9633H27ZM16.9203 9.94089C18.0725 7.22982 20.6301 6.06388 22.857 6.38557C23.966 6.54577 24.9871 7.073 25.734 7.96303C26.478 8.84981 27 10.1577 27 11.9633H29C29 9.75883 28.3553 7.97557 27.266 6.67746C26.1795 5.38261 24.7007 4.63115 23.143 4.40612C20.0365 3.95736 16.5942 5.59473 15.0797 9.15866L16.9203 9.94089Z" fill="url(#paint0_linear_2131_1133)"/>
<defs>
<linearGradient id="paint0_linear_2131_1133" x1="16" y1="5.3335" x2="16" y2="26.6668" gradientUnits="userSpaceOnUse">
<stop stop-color="#6595B0"/>
<stop offset="1" stop-color="white"/>
</linearGradient>
</defs>
</svg>
