<svg width="32" height="32" viewBox="0 0 32 32" fill="none" xmlns="http://www.w3.org/2000/svg">
<path d="M20 12H19C19 12.5523 19.4477 13 20 13V12ZM12 12V13C12.2652 13 12.5196 12.8946 12.7071 12.7071C12.8946 12.5196 13 12.2652 13 12H12ZM12 5.33333H13H12ZM12 26.6667H11H12ZM12 20H13C13 19.4477 12.5523 19 12 19V20ZM20 20V19C19.4477 19 19 19.4477 19 20H20ZM26.6667 12V13V12ZM5.33333 12L5.33333 11H5.33333V12ZM5.33333 20L5.33333 19H5.33333V20ZM18.6667 27H13.3333V29H18.6667V27ZM13.3333 5H18.6667V3H13.3333V5ZM19 5.33333V12H21V5.33333H19ZM13 12L13 5.33333L11 5.33333L11 12H13ZM13 26.6667L13 20H11L11 26.6667H13ZM19 20V26.6667H21V20H19ZM13.3333 3C12.0447 3 11 4.04467 11 5.33333H13C13 5.14924 13.1492 5 13.3333 5V3ZM13.3333 27C13.1492 27 13 26.8508 13 26.6667H11C11 27.9553 12.0447 29 13.3333 29V27ZM18.6667 29C19.9553 29 21 27.9553 21 26.6667H19C19 26.8508 18.8508 27 18.6667 27V29ZM18.6667 5C18.8508 5 19 5.14924 19 5.33333H21C21 4.04467 19.9553 3 18.6667 3V5ZM5 18.6667V13.3333H3V18.6667H5ZM27 13.3333V18.6667H29V13.3333H27ZM26.6667 19H20V21H26.6667V19ZM20 13L26.6667 13V11L20 11V13ZM5.33333 13L12 13V11L5.33333 11L5.33333 13ZM12 19L5.33333 19L5.33333 21H12V19ZM29 13.3333C29 12.0447 27.9553 11 26.6667 11V13C26.8508 13 27 13.1492 27 13.3333H29ZM5 13.3333C5 13.1492 5.14924 13 5.33333 13V11C4.04467 11 3 12.0447 3 13.3333H5ZM3 18.6667C3 19.9553 4.04467 21 5.33333 21V19C5.14924 19 5 18.8508 5 18.6667H3ZM27 18.6667C27 18.8508 26.8508 19 26.6667 19V21C27.9553 21 29 19.9553 29 18.6667H27Z" fill="url(#paint0_linear_2131_1136)"/>
<defs>
<linearGradient id="paint0_linear_2131_1136" x1="16" y1="4" x2="16" y2="28" gradientUnits="userSpaceOnUse">
<stop stop-color="#6595B0"/>
<stop offset="1" stop-color="white"/>
</linearGradient>
</defs>
</svg>
