<svg width="48" height="48" viewBox="0 0 48 48" fill="none" xmlns="http://www.w3.org/2000/svg">
<g opacity="0.6">
<path d="M20.54 41.5352L19.6455 41.088L20.54 41.5352ZM16.8396 41.2289L17.7953 40.9349L16.8396 41.2289ZM28.1346 27.2403L27.6874 26.3459L28.1346 27.2403ZM27.2402 28.1347L28.1346 28.582L27.2402 28.1347ZM41.2288 16.8397L40.9347 17.7955L41.2288 16.8397ZM41.5351 20.5401L41.9823 21.4345L41.5351 20.5401ZM9.61059 7.11099L9.31651 8.06677L9.61059 7.11099ZM7.11086 9.61071L8.06664 9.31663L7.11086 9.61071ZM9.31651 8.06677L40.9347 17.7955L41.5229 15.8839L9.90468 6.15521L9.31651 8.06677ZM41.0879 19.6457L27.6874 26.3459L28.5818 28.1347L41.9823 21.4345L41.0879 19.6457ZM26.3458 27.6875L19.6455 41.088L21.4344 41.9824L28.1346 28.582L26.3458 27.6875ZM17.7953 40.9349L8.06664 9.31663L6.15509 9.9048L15.8838 41.523L17.7953 40.9349ZM19.6455 41.088C19.2421 41.8949 18.0606 41.7971 17.7953 40.9349L15.8838 41.523C16.6797 44.1098 20.224 44.4032 21.4344 41.9824L19.6455 41.088ZM27.6874 26.3459C27.1068 26.6362 26.6361 27.107 26.3458 27.6875L28.1346 28.582C28.2314 28.3884 28.3883 28.2315 28.5818 28.1347L27.6874 26.3459ZM40.9347 17.7955C41.797 18.0608 41.8948 19.2422 41.0879 19.6457L41.9823 21.4345C44.403 20.2241 44.1097 16.6798 41.5229 15.8839L40.9347 17.7955ZM9.90468 6.15521C7.60286 5.44695 5.44683 7.60297 6.15509 9.9048L8.06664 9.31663C7.83056 8.54935 8.54923 7.83068 9.31651 8.06677L9.90468 6.15521Z" fill="#2EAADA"/>
</g>
</svg>
