<svg width="97" height="22" viewBox="0 0 97 22" fill="none" xmlns="http://www.w3.org/2000/svg">
<g clip-path="url(#clip0_921_4467)">
<path d="M25.6618 7.65137H35.4013V9.3121H31.5718V18.6479H29.4659V9.3121H25.6533V7.65137H25.6618ZM34.9853 10.6857H36.7854V12.2223H36.8194C36.8788 12.005 36.9892 11.7954 37.1505 11.5937C37.3119 11.3919 37.5072 11.1979 37.7364 11.0349C37.9657 10.8642 38.2204 10.7323 38.5006 10.6236C38.7809 10.5227 39.0696 10.4684 39.3583 10.4684C39.579 10.4684 39.7404 10.4762 39.8253 10.4839C39.9102 10.4917 39.9951 10.5072 40.0885 10.515V12.2067C39.9527 12.1835 39.8168 12.1679 39.6724 12.1524C39.5281 12.1369 39.3922 12.1291 39.2564 12.1291C38.9337 12.1291 38.628 12.1912 38.3393 12.3076C38.0506 12.424 37.8044 12.6025 37.5921 12.8276C37.3798 13.0604 37.21 13.3398 37.0826 13.6812C36.9552 14.0227 36.8958 14.4107 36.8958 14.853V18.6401H34.9768V10.6857H34.9853ZM48.911 18.6479H47.0259V17.5382H46.9919C46.7542 17.9417 46.406 18.2599 45.939 18.5004C45.472 18.741 44.9965 18.8652 44.5125 18.8652C43.3662 18.8652 42.534 18.6091 42.0245 18.0891C41.5151 17.5692 41.2603 16.7854 41.2603 15.7377V10.6857H43.1794V15.567C43.1794 16.2654 43.3237 16.7621 43.6209 17.0492C43.9096 17.3364 44.3257 17.4838 44.8521 17.4838C45.2597 17.4838 45.5909 17.4295 45.8626 17.3131C46.1343 17.1967 46.3551 17.0492 46.5164 16.8552C46.6863 16.669 46.8051 16.4362 46.8816 16.1723C46.958 15.9085 46.9919 15.6213 46.9919 15.3109V10.6935H48.911V18.6479ZM52.1801 16.0947C52.2396 16.6069 52.4518 16.9639 52.817 17.1734C53.1906 17.3752 53.6321 17.4838 54.1501 17.4838C54.3284 17.4838 54.5322 17.4683 54.7615 17.445C54.9907 17.4218 55.2115 17.3674 55.4068 17.2976C55.6106 17.2277 55.7719 17.1191 55.9078 16.9794C56.0352 16.8397 56.0946 16.6612 56.0861 16.4362C56.0776 16.2111 55.9842 16.0249 55.8144 15.8852C55.6446 15.7377 55.4323 15.6291 55.1691 15.536C54.9058 15.4506 54.6086 15.373 54.269 15.3109C53.9293 15.2488 53.5897 15.179 53.2415 15.1091C52.8849 15.0393 52.5368 14.9462 52.2056 14.8453C51.8744 14.7444 51.5772 14.6047 51.314 14.4262C51.0508 14.2555 50.8385 14.0304 50.6857 13.7588C50.5243 13.4872 50.4479 13.1535 50.4479 12.75C50.4479 12.3154 50.5668 11.9584 50.796 11.6635C51.0253 11.3686 51.3225 11.1358 51.6706 10.9573C52.0273 10.7788 52.4179 10.6547 52.8509 10.5771C53.284 10.5072 53.7001 10.4684 54.0907 10.4684C54.5407 10.4684 54.9738 10.515 55.3813 10.6003C55.7889 10.6857 56.1625 10.8254 56.4937 11.0272C56.8249 11.2212 57.0966 11.4773 57.3174 11.7877C57.5381 12.0981 57.674 12.4784 57.7334 12.9207H55.7295C55.6361 12.5016 55.4323 12.2145 55.1011 12.0748C54.77 11.9274 54.3879 11.8575 53.9633 11.8575C53.8274 11.8575 53.6661 11.8653 53.4793 11.8886C53.2925 11.9118 53.1227 11.9506 52.9528 12.005C52.7915 12.0593 52.6556 12.1447 52.5368 12.2533C52.4264 12.3619 52.3669 12.5016 52.3669 12.6801C52.3669 12.8974 52.4518 13.0681 52.6132 13.2001C52.7745 13.332 52.9868 13.4406 53.25 13.5338C53.5133 13.6191 53.8105 13.6967 54.1501 13.7588C54.4898 13.8209 54.8379 13.8908 55.1945 13.9606C55.5427 14.0304 55.8823 14.1236 56.222 14.2245C56.5616 14.3253 56.8588 14.465 57.1221 14.6435C57.3853 14.822 57.5976 15.0393 57.7589 15.3032C57.9202 15.567 58.0051 15.9007 58.0051 16.2887C58.0051 16.7621 57.8863 17.1579 57.6485 17.4916C57.4108 17.8175 57.1051 18.0891 56.7315 18.2909C56.3578 18.4927 55.9333 18.6479 55.4747 18.741C55.0162 18.8341 54.5577 18.8807 54.1077 18.8807C53.5557 18.8807 53.0462 18.8264 52.5792 18.71C52.1122 18.5936 51.7046 18.4228 51.365 18.1978C51.0253 17.965 50.7536 17.6778 50.5583 17.3364C50.363 16.9949 50.2611 16.5836 50.2441 16.1102H52.1801V16.0947ZM58.5146 10.6857H59.9666V8.29548H61.8857V10.6857H63.6179V11.9972H61.8857V16.2499C61.8857 16.4362 61.8942 16.5914 61.9111 16.7311C61.9281 16.863 61.9706 16.9794 62.03 17.0725C62.0895 17.1657 62.1829 17.2355 62.3102 17.2821C62.4376 17.3286 62.5989 17.3519 62.8197 17.3519C62.9556 17.3519 63.0914 17.3519 63.2273 17.3441C63.3632 17.3364 63.499 17.3209 63.6349 17.2898V18.6479C63.4226 18.6712 63.2103 18.6867 63.015 18.71C62.8112 18.7333 62.6074 18.741 62.3952 18.741C61.8857 18.741 61.4781 18.6945 61.1724 18.6091C60.8667 18.5237 60.6205 18.3918 60.4506 18.2211C60.2723 18.0503 60.1619 17.8408 60.094 17.5847C60.0346 17.3286 59.9921 17.0337 59.9836 16.7078V12.0127H58.5316V10.6857H58.5146ZM64.9765 10.6857H66.7936V11.7644H66.8276C67.0993 11.2988 67.4729 10.9728 67.957 10.7711C68.441 10.5693 68.9589 10.4684 69.5278 10.4684C70.2156 10.4684 70.81 10.577 71.3195 10.8021C71.829 11.0194 72.2536 11.3221 72.5932 11.7101C72.9329 12.0981 73.1791 12.5482 73.3489 13.0604C73.5187 13.5726 73.6037 14.1236 73.6037 14.7056C73.6037 15.2411 73.5272 15.761 73.3744 16.2577C73.2216 16.7621 72.9923 17.2045 72.6866 17.5925C72.3809 17.9805 71.9903 18.2832 71.5148 18.516C71.0393 18.7488 70.4874 18.8652 69.842 18.8652C69.5618 18.8652 69.2816 18.8419 69.0014 18.7953C68.7212 18.7488 68.4494 18.6712 68.1947 18.5703C67.94 18.4694 67.6937 18.3375 67.4814 18.1745C67.2607 18.0115 67.0823 17.8253 66.9295 17.6158H66.8955V21.5891H64.9765V10.6857ZM71.6846 14.6746C71.6846 14.3176 71.6337 13.9684 71.5318 13.6269C71.4299 13.2854 71.2771 12.9905 71.0733 12.7267C70.8695 12.4628 70.6147 12.2533 70.3175 12.0981C70.0118 11.9429 69.6637 11.8575 69.2731 11.8575C68.4664 11.8575 67.8551 12.1136 67.4475 12.6258C67.0399 13.138 66.8361 13.8209 66.8361 14.6746C66.8361 15.0781 66.887 15.4506 66.9974 15.7921C67.1078 16.1335 67.2607 16.4284 67.4814 16.6767C67.6937 16.9251 67.9485 17.1191 68.2457 17.2588C68.5429 17.4062 68.891 17.4761 69.2816 17.4761C69.7231 17.4761 70.0883 17.3907 70.394 17.2277C70.6996 17.0648 70.9459 16.8475 71.1412 16.5914C71.3365 16.3275 71.4808 16.0326 71.5657 15.6989C71.6422 15.3652 71.6846 15.0238 71.6846 14.6746ZM75.0727 7.65137H76.9917V9.3121H75.0727V7.65137ZM75.0727 10.6857H76.9917V18.6479H75.0727V10.6857ZM78.7069 7.65137H80.626V18.6479H78.7069V7.65137ZM86.5104 18.8652C85.8141 18.8652 85.1943 18.7565 84.6508 18.547C84.1074 18.3375 83.6489 18.0426 83.2668 17.6778C82.8931 17.3053 82.6044 16.863 82.4091 16.3508C82.2138 15.8386 82.1119 15.2721 82.1119 14.659C82.1119 14.0537 82.2138 13.495 82.4091 12.9828C82.6044 12.4706 82.8931 12.0283 83.2668 11.6557C83.6404 11.2832 84.1074 10.9961 84.6508 10.7866C85.1943 10.577 85.8141 10.4684 86.5104 10.4684C87.2067 10.4684 87.8266 10.577 88.37 10.7866C88.9135 10.9961 89.372 11.291 89.7541 11.6557C90.1277 12.0283 90.4164 12.4706 90.6117 12.9828C90.807 13.495 90.9089 14.0537 90.9089 14.659C90.9089 15.2721 90.807 15.8386 90.6117 16.3508C90.4164 16.863 90.1277 17.3053 89.7541 17.6778C89.3805 18.0503 88.9135 18.3375 88.37 18.547C87.8266 18.7565 87.2067 18.8652 86.5104 18.8652ZM86.5104 17.4761C86.935 17.4761 87.3086 17.3907 87.6228 17.2277C87.937 17.0648 88.1917 16.8475 88.3955 16.5836C88.5993 16.3198 88.7436 16.0171 88.8455 15.6834C88.9389 15.3497 88.9899 15.0083 88.9899 14.659C88.9899 14.3176 88.9389 13.9839 88.8455 13.6424C88.7521 13.301 88.5993 13.0061 88.3955 12.7422C88.1917 12.4784 87.937 12.2688 87.6228 12.1059C87.3086 11.9429 86.935 11.8575 86.5104 11.8575C86.0859 11.8575 85.7122 11.9429 85.3981 12.1059C85.0839 12.2688 84.8292 12.4861 84.6254 12.7422C84.4216 13.0061 84.2772 13.301 84.1753 13.6424C84.0819 13.9839 84.031 14.3176 84.031 14.659C84.031 15.0083 84.0819 15.3497 84.1753 15.6834C84.2687 16.0171 84.4216 16.3198 84.6254 16.5836C84.8292 16.8475 85.0839 17.0648 85.3981 17.2277C85.7122 17.3985 86.0859 17.4761 86.5104 17.4761ZM91.4693 10.6857H92.9214V8.29548H94.8404V10.6857H96.5726V11.9972H94.8404V16.2499C94.8404 16.4362 94.8489 16.5914 94.8659 16.7311C94.8828 16.863 94.9253 16.9794 94.9847 17.0725C95.0442 17.1657 95.1376 17.2355 95.265 17.2821C95.3923 17.3286 95.5537 17.3519 95.7744 17.3519C95.9103 17.3519 96.0462 17.3519 96.182 17.3441C96.3179 17.3364 96.4537 17.3209 96.5896 17.2898V18.6479C96.3773 18.6712 96.165 18.6867 95.9697 18.71C95.7659 18.7333 95.5622 18.741 95.3499 18.741C94.8404 18.741 94.4328 18.6945 94.1271 18.6091C93.8214 18.5237 93.5752 18.3918 93.4054 18.2211C93.227 18.0503 93.1167 17.8408 93.0487 17.5847C92.9893 17.3286 92.9468 17.0337 92.9383 16.7078V12.0127H91.4863V10.6857H91.4693Z" fill="#222222"/>
<path d="M23.4216 7.65179H14.6247L11.9074 0L9.18174 7.65179L0.384766 7.64403L7.50896 12.3779L4.78326 20.0219L11.9074 15.2958L19.0232 20.0219L16.3059 12.3779L23.4216 7.65179Z" fill="#00B67A"/>
<path d="M16.9181 14.108L16.3067 12.3774L11.9082 15.2954L16.9181 14.108Z" fill="#005128"/>
</g>
<defs>
<clipPath id="clip0_921_4467">
<rect width="96.1894" height="21.5895" fill="white" transform="translate(0.384766)"/>
</clipPath>
</defs>
</svg>
