<?xml version="1.0" standalone="no"?>
<!DOCTYPE svg PUBLIC "-//W3C//DTD SVG 20010904//EN"
 "http://www.w3.org/TR/2001/REC-SVG-20010904/DTD/svg10.dtd">
<svg version="1.0" xmlns="http://www.w3.org/2000/svg"
 width="128.000000pt" height="128.000000pt" viewBox="0 0 128.000000 128.000000"
 preserveAspectRatio="xMidYMid meet">
<metadata>
Created by potrace 1.14, written by Peter Selinger 2001-2017
</metadata>
<g transform="translate(0.000000,128.000000) scale(0.100000,-0.100000)"
fill="#000000" stroke="none">
<path d="M474 1218 c-3 -5 -11 -8 -19 -8 -19 0 -106 -59 -128 -87 -10 -13 -25
-29 -32 -37 -8 -7 -11 -16 -8 -20 4 -3 2 -6 -3 -6 -5 0 -10 -10 -11 -22 -1
-11 -6 -24 -11 -27 -23 -16 -33 -142 -18 -226 5 -22 8 -45 9 -52 0 -7 4 -10 9
-7 4 3 8 -4 8 -16 0 -21 35 -93 58 -118 6 -7 12 -18 12 -23 0 -16 147 -156
179 -170 17 -8 31 -17 31 -20 0 -8 61 -33 73 -30 4 0 7 -3 7 -8 0 -5 10 -12
23 -16 75 -22 97 -27 137 -30 25 -2 47 -5 50 -5 15 -5 90 -4 90 1 0 3 6 6 13
6 19 1 60 10 82 19 54 21 168 124 157 142 -2 2 1 8 6 11 5 3 17 29 25 56 8 28
18 59 22 70 6 16 5 17 -4 5 -7 -9 -11 -10 -11 -3 0 6 5 15 10 18 11 7 8 77 -6
140 -3 17 -7 36 -7 43 0 6 -2 10 -5 8 -2 -3 -4 -44 -4 -93 0 -48 -4 -93 -10
-100 -5 -7 -7 -17 -3 -23 3 -5 1 -10 -4 -10 -6 0 -11 -5 -11 -10 0 -22 -74
-95 -112 -113 -16 -6 -28 -15 -28 -18 0 -3 -6 -6 -12 -6 -7 -1 -39 -6 -71 -13
-33 -6 -65 -9 -73 -6 -7 3 -16 1 -19 -5 -4 -5 -12 -6 -18 -2 -7 4 -14 8 -17 8
-53 8 -97 19 -106 26 -7 6 -16 9 -20 8 -15 -4 -86 34 -144 75 -65 47 -152 135
-144 147 3 5 1 9 -4 9 -13 0 -63 96 -55 104 4 3 0 6 -7 6 -7 0 -10 3 -7 6 3 4
2 14 -3 24 -5 9 -10 34 -12 54 -1 21 -5 39 -9 41 -9 6 20 129 32 133 5 2 9 10
9 17 0 16 94 100 112 100 7 0 14 8 16 19 3 11 0 16 -7 12 -6 -4 -11 -5 -11 -2
0 3 15 12 33 20 l32 14 -28 -1 c-16 -1 -31 -5 -33 -9z"/>
<path d="M520 1206 c0 -2 7 -7 16 -10 8 -3 12 -2 9 4 -6 10 -25 14 -25 6z"/>
<path d="M656 1201 c-3 -5 -17 -12 -31 -15 -38 -10 -84 -54 -111 -108 -13 -27
-21 -48 -18 -48 4 0 2 -6 -4 -12 -15 -20 -7 -138 14 -183 10 -22 18 -42 19
-45 0 -6 31 -44 58 -72 9 -10 14 -18 10 -18 -3 0 15 -16 40 -36 26 -20 47 -41
47 -46 0 -5 4 -7 8 -4 5 3 33 -7 63 -22 46 -22 67 -26 139 -26 68 1 94 5 130
24 88 45 129 115 131 222 1 73 -3 94 -27 140 -10 18 -19 35 -19 38 -8 29 -19
40 -30 30 -10 -8 -15 -8 -21 1 -4 8 -3 9 4 5 8 -5 12 1 12 14 0 12 -3 19 -7
17 -5 -3 -17 5 -28 16 -11 11 -14 16 -6 12 10 -5 12 -4 7 4 -4 6 -12 9 -17 6
-5 -4 -9 1 -9 9 0 9 -5 16 -11 16 -6 0 -22 9 -36 20 -25 19 -27 20 -46 3 -15
-13 -21 -15 -24 -5 -3 6 -9 10 -14 6 -5 -3 -9 0 -9 5 0 14 17 14 25 1 7 -12
25 -4 25 11 0 5 -7 9 -15 9 -8 0 -15 5 -15 10 0 6 -5 10 -11 10 -5 0 -7 -5 -3
-12 4 -7 -6 -3 -22 9 -36 25 -155 32 -182 11 -11 -9 -14 -10 -8 0 4 6 5 12 2
12 -3 0 -7 -4 -10 -9z m114 -15 c0 -2 -7 -7 -16 -10 -8 -3 -12 -2 -9 4 6 10
25 14 25 6z m31 -19 c-10 -9 -11 -8 -5 6 3 10 9 15 12 12 3 -3 0 -11 -7 -18z
m36 -2 c0 -8 -4 -12 -9 -9 -5 3 -6 10 -3 15 9 13 12 11 12 -6z m6 -27 c9 -1
17 -6 17 -11 0 -4 4 -6 9 -2 5 3 12 1 16 -5 4 -6 11 -8 16 -5 5 4 9 2 9 -2 0
-5 16 -17 36 -28 20 -10 44 -30 54 -43 12 -14 24 -21 31 -16 7 4 9 3 6 -3 -4
-6 2 -22 13 -36 11 -14 20 -30 20 -37 0 -6 5 -8 10 -5 6 4 10 3 8 -2 -1 -4 5
-28 12 -53 25 -84 18 -125 -33 -182 -13 -16 -29 -28 -34 -28 -6 0 -16 -6 -22
-14 -17 -20 -181 -17 -206 4 -10 8 -20 14 -21 13 -9 -4 -44 11 -44 19 0 5 -4
7 -9 3 -6 -3 -14 3 -20 12 -6 10 -11 14 -11 9 0 -22 -121 117 -125 144 0 3 -6
15 -13 28 -7 12 -10 27 -7 32 3 5 1 11 -5 15 -11 7 -7 68 8 107 12 29 62 70
107 86 25 10 113 9 178 0z m107 -18 c-6 -11 -13 -20 -16 -20 -2 0 0 9 6 20 6
11 13 20 16 20 2 0 0 -9 -6 -20z m30 -20 c0 -5 -2 -10 -4 -10 -3 0 -8 5 -11
10 -3 6 -1 10 4 10 6 0 11 -4 11 -10z m24 -16 c3 -8 2 -12 -4 -9 -6 3 -10 10
-10 16 0 14 7 11 14 -7z"/>
<path d="M210 1041 c0 -7 -5 -9 -12 -5 -6 4 -9 3 -5 -2 3 -5 -1 -18 -9 -29 -8
-10 -14 -15 -14 -9 -1 5 -8 -7 -18 -26 -9 -19 -21 -42 -27 -50 -5 -8 -10 -19
-11 -25 -2 -5 -9 -30 -16 -55 -8 -25 -13 -57 -13 -72 1 -16 -3 -28 -8 -28 -4
0 -5 -5 -1 -11 3 -6 1 -15 -7 -19 -9 -6 -13 -37 -14 -109 -1 -56 2 -101 5
-101 3 0 7 -14 8 -32 2 -17 7 -37 12 -43 5 -6 11 -21 13 -32 2 -12 8 -28 15
-35 6 -8 9 -18 5 -21 -3 -4 -1 -7 5 -7 7 0 12 -7 12 -15 0 -8 5 -15 12 -15 6
0 9 -3 5 -6 -3 -4 -1 -12 6 -19 32 -33 57 -66 57 -75 0 -6 6 -10 13 -10 7 0
19 -9 27 -20 8 -11 19 -20 25 -20 5 0 20 -10 31 -23 17 -18 102 -68 124 -73 6
-1 37 -12 68 -25 13 -5 27 -7 32 -4 5 3 11 1 15 -4 3 -6 53 -9 115 -8 60 1
107 4 104 6 -4 5 76 30 103 33 17 2 50 38 35 38 -7 0 -12 -4 -12 -9 0 -5 -12
-11 -27 -14 -26 -5 -27 -4 -8 10 11 8 32 17 48 20 15 3 27 9 27 14 0 5 8 9 18
9 23 0 106 59 135 95 12 15 32 39 44 52 11 14 24 39 27 55 3 16 9 27 14 24 4
-2 9 6 10 20 1 13 -3 24 -8 24 -5 0 -6 -7 -3 -17 4 -10 2 -14 -4 -10 -6 4 -21
-9 -34 -28 -13 -19 -30 -35 -36 -35 -7 0 -13 -5 -13 -11 0 -5 -4 -7 -10 -4 -5
3 -10 2 -10 -3 0 -8 -45 -35 -62 -36 -3 -1 -9 -4 -13 -8 -4 -4 -13 -4 -21 -1
-8 3 -14 1 -14 -5 0 -5 -10 -10 -22 -10 -13 -1 -49 -3 -80 -5 -32 -2 -58 0
-58 4 0 5 -5 9 -11 9 -5 0 -8 -4 -5 -8 3 -5 -26 -1 -64 7 -37 9 -66 19 -64 23
3 4 -2 5 -10 2 -9 -3 -16 -1 -16 6 0 6 -4 9 -8 6 -5 -3 -20 1 -35 9 -14 7 -28
11 -31 7 -3 -3 -6 0 -6 6 0 7 -6 12 -13 12 -8 0 -33 14 -55 30 -23 17 -45 30
-48 30 -7 0 -115 110 -152 153 -33 41 -122 234 -101 221 8 -5 9 -3 4 6 -13 20
-15 142 -3 164 7 13 7 16 -1 12 -5 -4 -4 6 4 21 8 15 15 34 15 41 0 6 4 12 9
12 10 0 25 50 16 58 -3 3 -5 0 -5 -7z m-120 -365 c0 -3 -4 -8 -10 -11 -5 -3
-10 -1 -10 4 0 6 5 11 10 11 6 0 10 -2 10 -4z m0 -36 c0 -5 -4 -10 -10 -10 -5
0 -10 5 -10 10 0 6 5 10 10 10 6 0 10 -4 10 -10z m7 -46 c-3 -4 -1 -16 6 -28
6 -11 12 -25 13 -31 2 -18 17 -50 28 -57 7 -5 7 -8 -2 -8 -11 0 -34 40 -36 65
-1 6 -7 20 -13 31 -11 19 -9 34 5 34 3 0 2 -3 -1 -6z m71 -164 c12 -16 22 -34
22 -40 0 -6 5 -8 12 -4 6 4 8 3 4 -4 -3 -6 2 -15 11 -21 10 -6 15 -11 11 -11
-5 0 0 -8 10 -18 9 -11 20 -17 25 -15 4 2 7 -4 7 -13 0 -10 3 -15 6 -11 3 3
20 -9 38 -26 17 -18 41 -38 51 -44 45 -29 131 -78 138 -79 4 -1 9 -3 12 -4 3
-1 8 -3 13 -4 4 -1 17 -7 30 -14 12 -7 22 -10 22 -7 0 3 9 1 20 -5 11 -6 17
-16 14 -22 -5 -8 -11 -6 -18 4 -6 8 -19 14 -28 12 -10 -1 -18 2 -18 7 0 5 -3
8 -7 7 -20 -4 -153 62 -153 76 0 5 -3 7 -6 3 -6 -6 -28 10 -80 60 -19 17 -37
33 -42 35 -10 4 -82 94 -82 102 0 4 -6 14 -12 21 -31 35 -38 45 -30 45 4 0 18
-13 30 -30z m489 -336 c-3 -3 -12 -4 -19 -1 -8 3 -5 6 6 6 11 1 17 -2 13 -5z
m49 -16 c3 -4 -1 -5 -10 -4 -8 1 -18 5 -22 8 -3 4 1 5 10 4 8 -1 18 -5 22 -8z
m111 -15 c-9 -2 -14 -9 -11 -15 4 -7 2 -8 -4 -4 -20 12 -13 26 11 25 17 -1 18
-2 4 -6z"/>
</g>
</svg>
