<svg width="56" height="55" viewBox="0 0 56 55" fill="none" xmlns="http://www.w3.org/2000/svg">
<path d="M13.9955 42.051L13.4518 42.3839C13.5065 42.4731 13.5822 42.5475 13.6724 42.6005L13.9955 42.051ZM48.061 8.66683L48.6971 8.62357C48.6754 8.30493 48.4213 8.05151 48.1026 8.03068L48.061 8.66683ZM14.5392 41.7181C11.5851 36.8931 10.3842 32.359 10.6552 28.3165C10.9257 24.2816 12.6656 20.6816 15.6941 17.7136C21.7729 11.7564 33.0794 8.32686 48.0195 9.30297L48.1026 8.03068C32.9848 7.04296 21.247 10.4866 14.8017 16.803C11.5682 19.9718 9.67615 23.8587 9.38305 28.2312C9.09045 32.5961 10.3943 37.39 13.4518 42.3839L14.5392 41.7181ZM47.425 8.71009C48.4203 23.3428 44.9234 34.4142 38.8479 40.3683C35.8193 43.3363 32.1409 45.0459 28.0128 45.3117C23.8777 45.5779 19.2443 44.3978 14.3186 41.5015L13.6724 42.6005C18.766 45.5956 23.6508 46.8701 28.0947 46.584C32.5455 46.2975 36.5068 44.4477 39.7403 41.2789C46.1888 34.9593 49.7054 23.4473 48.6971 8.62357L47.425 8.71009Z" fill="url(#paint0_linear_921_4576)"/>
<path d="M8.4502 46.7507L25.2802 31.4507" stroke="url(#paint1_linear_921_4576)" stroke-width="1.275" stroke-linecap="round" stroke-linejoin="round"/>
<defs>
<linearGradient id="paint0_linear_921_4576" x1="29.1055" y1="8.50073" x2="29.1055" y2="45.9857" gradientUnits="userSpaceOnUse">
<stop stop-color="#6595B0"/>
<stop offset="1" stop-color="white"/>
</linearGradient>
<linearGradient id="paint1_linear_921_4576" x1="16.8652" y1="31.4507" x2="16.8652" y2="46.7507" gradientUnits="userSpaceOnUse">
<stop stop-color="#6595B0"/>
<stop offset="1" stop-color="white"/>
</linearGradient>
</defs>
</svg>
