<svg width="8" height="5" viewBox="0 0 8 5" fill="none" xmlns="http://www.w3.org/2000/svg">
<path d="M7.23192 1.56042C7.50018 1.29217 7.50018 0.857245 7.23192 0.588993C6.96367 0.32074 6.52875 0.32074 6.26049 0.588993L7.23192 1.56042ZM3.99859 3.82232L3.51288 4.30804C3.78113 4.57629 4.21605 4.57629 4.48431 4.30804L3.99859 3.82232ZM1.73669 0.588993C1.46844 0.32074 1.03351 0.32074 0.765262 0.588993C0.497009 0.857245 0.497009 1.29217 0.765262 1.56042L1.73669 0.588993ZM6.26049 0.588993L3.51288 3.33661L4.48431 4.30804L7.23192 1.56042L6.26049 0.588993ZM4.48431 3.33661L1.73669 0.588993L0.765262 1.56042L3.51288 4.30804L4.48431 3.33661Z" fill="currentColor"/>
</svg>
