<svg width="17" height="17" viewBox="0 0 17 17" fill="none" xmlns="http://www.w3.org/2000/svg">
<path d="M10.4421 15.3063L9.7713 15.6417L10.4421 15.3063ZM11.984 15.1787L11.2671 14.9581L11.984 15.1787ZM7.27768 9.35008L6.94227 10.0209L7.27768 9.35008ZM7.65036 9.72276L8.32118 9.38735L7.65036 9.72276ZM1.82176 5.01648L2.04232 5.73331L1.82176 5.01648ZM1.69416 6.55832L1.35874 7.22914H1.35874L1.69416 6.55832ZM14.996 0.96286L15.2166 1.67969L14.996 0.96286ZM16.0376 2.00441L16.7544 2.22498L16.0376 2.00441ZM14.7755 0.246026L1.6012 4.29965L2.04232 5.73331L15.2166 1.67969L14.7755 0.246026ZM1.35874 7.22914L6.94227 10.0209L7.61309 8.67926L2.02957 5.8875L1.35874 7.22914ZM6.97954 10.0582L9.7713 15.6417L11.1129 14.9709L8.32118 9.38735L6.97954 10.0582ZM12.7008 15.3992L16.7544 2.22498L15.3207 1.78385L11.2671 14.9581L12.7008 15.3992ZM9.7713 15.6417C10.4101 16.9193 12.2807 16.7645 12.7008 15.3992L11.2671 14.9581C11.2583 14.9867 11.2477 14.9958 11.242 15.0001C11.2329 15.0071 11.2166 15.0148 11.1944 15.0167C11.1721 15.0185 11.1548 15.0136 11.1446 15.0082C11.1382 15.0048 11.1263 14.9976 11.1129 14.9709L9.7713 15.6417ZM6.94227 10.0209C6.9584 10.029 6.97147 10.042 6.97954 10.0582L8.32118 9.38735C8.16797 9.08093 7.91951 8.83247 7.61309 8.67926L6.94227 10.0209ZM1.6012 4.29965C0.23594 4.71972 0.0811304 6.59033 1.35874 7.22914L2.02957 5.8875C2.00283 5.87413 1.99562 5.8622 1.99226 5.85585C1.98686 5.84564 1.98195 5.8283 1.98378 5.80609C1.98562 5.78388 1.99332 5.76758 2.00033 5.7584C2.00468 5.75269 2.01376 5.7421 2.04232 5.73331L1.6012 4.29965ZM15.2166 1.67969C15.2392 1.67274 15.2525 1.67455 15.2613 1.67693C15.2728 1.68002 15.287 1.68735 15.3 1.70042C15.3131 1.71349 15.3204 1.72764 15.3235 1.73912C15.3259 1.74796 15.3277 1.76124 15.3207 1.78385L16.7544 2.22498C17.1282 1.01012 15.9903 -0.127774 14.7755 0.246026L15.2166 1.67969Z" fill="#6AC4E6"/>
</svg>
