<svg width="17" height="18" viewBox="0 0 17 18" fill="none" xmlns="http://www.w3.org/2000/svg">
<path d="M16.2086 4.27485C15.0748 4.27482 13.9875 3.82442 13.1859 3.02273C12.3842 2.22104 11.9339 1.13373 11.9339 0H8.87979V11.9593C8.87922 12.5045 8.70705 13.0358 8.3877 13.4777C8.06834 13.9197 7.61798 14.2499 7.10047 14.4216C6.58295 14.5933 6.02452 14.5977 5.50433 14.4343C4.98414 14.2709 4.52858 13.9479 4.20221 13.5111C3.87584 13.0743 3.69522 12.5459 3.68595 12.0007C3.67668 11.4556 3.83923 10.9213 4.15057 10.4737C4.4619 10.026 4.90622 9.68775 5.42056 9.50675C5.93489 9.32575 6.49314 9.31122 7.0162 9.46522V6.49636C5.90462 6.34648 4.77376 6.53927 3.77464 7.04901C2.77551 7.55874 1.95568 8.36116 1.4246 9.3491C0.893521 10.337 0.676481 11.4635 0.802461 12.578C0.928441 13.6926 1.39144 14.7422 2.12964 15.5866C2.86785 16.4311 3.84611 17.0303 4.9338 17.3042C6.0215 17.578 7.16686 17.5135 8.21694 17.1193C9.26702 16.7251 10.1718 16.0199 10.8106 15.0979C11.4493 14.1759 11.7916 13.0809 11.7916 11.9593L11.8807 5.91425C13.1356 6.83544 14.6522 7.33109 16.2089 7.32877L16.2086 4.27485Z" fill="white"/>
</svg>
