<svg width="32" height="32" viewBox="0 0 32 32" fill="none" xmlns="http://www.w3.org/2000/svg">
<path d="M13.6933 27.6901L12.7989 27.2428L13.6933 27.6901ZM11.2264 27.4859L12.1821 27.1918L11.2264 27.4859ZM18.7564 18.1601L18.3092 17.2657L18.7564 18.1601ZM18.1601 18.7564L19.0546 19.2036L18.1601 18.7564ZM27.4859 11.2264L27.1918 12.1821L27.4859 11.2264ZM27.6901 13.6933L28.1373 14.5877L27.6901 13.6933ZM6.40706 4.74058L6.11298 5.69636L6.40706 4.74058ZM4.74058 6.40706L5.69636 6.11298L4.74058 6.40706ZM6.11298 5.69636L27.1918 12.1821L27.78 10.2706L6.70115 3.7848L6.11298 5.69636ZM27.2428 12.7989L18.3092 17.2657L19.2036 19.0546L28.1373 14.5877L27.2428 12.7989ZM17.2657 18.3092L12.7989 27.2428L14.5877 28.1373L19.0546 19.2036L17.2657 18.3092ZM12.1821 27.1918L5.69636 6.11298L3.7848 6.70115L10.2706 27.78L12.1821 27.1918ZM12.7989 27.2428C12.6644 27.5118 12.2706 27.4792 12.1821 27.1918L10.2706 27.78C10.8897 29.7919 13.6463 30.0201 14.5877 28.1373L12.7989 27.2428ZM18.3092 17.2657C17.8576 17.4915 17.4915 17.8576 17.2657 18.3092L19.0546 19.2036C19.0868 19.1391 19.1391 19.0868 19.2036 19.0546L18.3092 17.2657ZM27.1918 12.1821C27.4792 12.2706 27.5118 12.6644 27.2428 12.7989L28.1373 14.5877C30.0201 13.6463 29.7919 10.8897 27.78 10.2706L27.1918 12.1821ZM6.70115 3.7848C4.91084 3.23393 3.23393 4.91083 3.7848 6.70115L5.69636 6.11298C5.61766 5.85722 5.85722 5.61766 6.11298 5.69636L6.70115 3.7848Z" fill="#2EAADA"/>
</svg>
