<svg width="99" height="23" viewBox="0 0 99 23" fill="none" xmlns="http://www.w3.org/2000/svg">
<path d="M99 19.9364V20.0101C98.9929 21.6285 97.7128 22.935 96.1448 22.9277C94.5769 22.9203 93.3087 21.599 93.3183 19.9806C93.3254 18.3597 94.6055 17.0556 96.1734 17.063H96.1972C97.739 17.0581 98.9952 18.345 99 19.9364Z" fill="#2EAADA"/>
<path d="M82.9839 18.8219C80.8188 18.9766 78.9415 17.2919 78.7892 15.057C78.6393 12.8221 80.2715 10.8844 82.439 10.7272C82.5223 10.7223 82.608 10.7174 82.6936 10.7174C84.8588 10.5627 86.7384 12.2474 86.8883 14.4823C87.0382 16.7172 85.406 18.6573 83.2409 18.8121C83.1552 18.8194 83.0696 18.8219 82.9839 18.8219ZM86.924 6.95497V7.96434C83.2813 5.41266 78.3253 6.39256 75.8532 10.1526C73.3811 13.9125 74.3304 19.0282 77.9731 21.5799C80.676 23.4734 84.2235 23.4734 86.924 21.5799V22.5893H91.4185V6.95251L86.924 6.95497Z" fill="#2EAADA"/>
<path d="M72.9635 12.625V22.5296H68.4691V14.2876C68.4691 12.0233 67.3318 10.7953 65.376 10.7953C65.2189 10.7683 65.0572 10.7683 64.9001 10.7953C63.1537 10.9599 61.8594 12.5415 61.9926 14.3441V22.5566H57.472V6.91991H61.9403V8.69307C63.0395 7.22199 64.7693 6.40418 66.5656 6.50978C66.6989 6.50978 66.8559 6.48277 66.9891 6.48277C70.2821 6.47785 72.9564 9.226 72.9635 12.625Z" fill="#2EAADA"/>
<path d="M55.3813 6.97297V11.5017H55.329C53.5588 11.5017 50.9939 12.8377 50.9939 15.2936V22.6073H46.3923V6.97297H50.9653V9.01874C52.067 7.69009 53.6873 6.94104 55.3813 6.97297Z" fill="#2EAADA"/>
<path d="M35.6026 18.7894C33.4327 18.7992 31.6648 16.9917 31.6553 14.7495C31.6458 12.5072 33.3993 10.6849 35.5693 10.6751C37.7392 10.6653 39.507 12.4753 39.5165 14.7151V14.7224C39.4451 16.9278 37.7368 18.7035 35.6026 18.7894ZM39.5427 6.92004V7.92942C38.2364 6.99617 36.6899 6.49271 35.1005 6.48289C30.6917 6.56148 27.1775 10.3141 27.256 14.8649C27.3298 19.3052 30.7988 22.8883 35.1005 22.9645C36.6875 22.9645 38.2341 22.4708 39.5427 21.5449V22.5543H44.0372V6.91758L39.5427 6.92004Z" fill="#2EAADA"/>
<path d="M25.3845 9.5559e-05H20.6781V22.5944H25.3845V9.5559e-05Z" fill="#2EAADA"/>
<path d="M4.97031 9.5559e-05H0V22.5944H4.97031V9.5559e-05Z" fill="#2EAADA"/>
<path d="M19.1905 22.5943H13.0233L5.56903 11.9799L7.49863 10.4793C10.6797 7.99888 12.5427 4.1161 12.5213 0H17.3846C17.4108 4.80129 15.5858 9.41594 12.3096 12.8247L19.1905 22.5943Z" fill="#2EAADA"/>
</svg>
