<svg width="32" height="32" viewBox="0 0 32 32" fill="none" xmlns="http://www.w3.org/2000/svg">
<path d="M20.7071 18.0406C21.0976 17.6501 21.0976 17.0169 20.7071 16.6264C20.3166 16.2359 19.6834 16.2359 19.2929 16.6264L20.7071 18.0406ZM14.6667 22.6668L13.9596 23.3739C14.3501 23.7645 14.9832 23.7645 15.3738 23.3739L14.6667 22.6668ZM12.7071 19.2931C12.3166 18.9025 11.6834 18.9025 11.2929 19.2931C10.9024 19.6836 10.9024 20.3167 11.2929 20.7073L12.7071 19.2931ZM19.2929 16.6264L13.9596 21.9597L15.3738 23.3739L20.7071 18.0406L19.2929 16.6264ZM15.3738 21.9597L12.7071 19.2931L11.2929 20.7073L13.9596 23.3739L15.3738 21.9597Z" fill="#2EAADA"/>
<path d="M23.9998 28H7.99984C7.26346 28 6.66651 27.403 6.66651 26.6667L6.6665 5.33333C6.6665 4.59696 7.26346 4 7.99984 4L18.084 4C18.4554 4 18.81 4.15492 19.0623 4.42746L24.9782 10.8166C25.2064 11.0631 25.3332 11.3866 25.3332 11.7225L25.3332 26.6667C25.3332 27.403 24.7362 28 23.9998 28Z" stroke="#2EAADA" stroke-width="2" stroke-linecap="round" stroke-linejoin="round"/>
<path d="M25.3335 12L18.6668 12C17.9305 12 17.3335 11.403 17.3335 10.6667L17.3335 4" stroke="#2EAADA" stroke-width="2" stroke-linecap="round" stroke-linejoin="round"/>
</svg>
