<svg width="65" height="18" viewBox="0 0 65 18" fill="none" xmlns="http://www.w3.org/2000/svg">
<path d="M11.0026 0.840808C10.1879 0.280722 9.12473 0 7.81317 0H2.73552C2.33345 0 2.11131 0.201084 2.06912 0.602863L0.0064746 13.5506C-0.0149628 13.6778 0.0168537 13.7941 0.101633 13.8998C0.185928 14.0057 0.29195 14.0584 0.418926 14.0584H2.83078C3.2538 14.0584 3.48631 13.8578 3.52899 13.4555L4.10014 9.96486C4.121 9.79569 4.1954 9.65814 4.32237 9.55221C4.44925 9.44648 4.60794 9.37732 4.79836 9.3457C4.98877 9.31427 5.16832 9.29836 5.33788 9.29836C5.50696 9.29836 5.70785 9.30913 5.94094 9.33018C6.17345 9.35123 6.32167 9.3616 6.38521 9.3616C8.20457 9.3616 9.63263 8.84895 10.6695 7.82248C11.7058 6.7966 12.2246 5.37397 12.2246 3.55403C12.2246 2.30582 11.8169 1.40148 11.0026 0.840517V0.840808ZM8.38461 4.72862C8.27849 5.46923 8.00378 5.9556 7.55951 6.1884C7.11515 6.42149 6.48046 6.53751 5.65546 6.53751L4.60814 6.56913L5.14776 3.1734C5.18986 2.94089 5.32731 2.82449 5.56021 2.82449H6.16337C7.00922 2.82449 7.62314 2.94642 8.00397 3.18931C8.38461 3.43278 8.51158 3.94602 8.38461 4.72862Z" fill="#0041B8"/>
<path d="M64.5869 0H62.2387C62.0054 0 61.868 0.116403 61.8261 0.349303L59.7633 13.5512L59.7314 13.6146C59.7314 13.7209 59.7737 13.821 59.8586 13.9162C59.9427 14.0113 60.049 14.0589 60.1758 14.0589H62.2707C62.6719 14.0589 62.8942 13.8583 62.9372 13.456L64.9998 0.476277V0.444752C64.9997 0.148413 64.8618 0.000389273 64.5869 0.000389273V0Z" fill="#009CDE"/>
<path d="M36.2184 5.11028C36.2184 5.00474 36.1759 4.90406 36.0918 4.80909C36.007 4.71393 35.9117 4.66602 35.8062 4.66602H33.3626C33.1294 4.66602 32.939 4.77233 32.7911 4.98331L29.4273 9.93416L28.031 5.17392C27.9246 4.83567 27.6922 4.66602 27.3328 4.66602H24.9523C24.8463 4.66602 24.7511 4.71374 24.667 4.80909C24.5821 4.90406 24.54 5.00494 24.54 5.11028C24.54 5.15287 24.7464 5.77678 25.1588 6.9827C25.5713 8.18901 26.0155 9.49019 26.4916 10.8866C26.9677 12.2828 27.2161 13.0237 27.2374 13.1076C25.5024 15.4775 24.6353 16.7469 24.6353 16.9158C24.6353 17.1911 24.7726 17.3285 25.0478 17.3285H27.4914C27.724 17.3285 27.9144 17.2229 28.0628 17.0113L36.1554 5.33232C36.1974 5.29041 36.2184 5.21669 36.2184 5.11018V5.11028Z" fill="#0041B8"/>
<path d="M58.9748 4.66549H56.5629C56.2664 4.66549 56.0872 5.0147 56.0237 5.71302C55.4729 4.86697 54.4686 4.44336 53.0085 4.44336C51.4853 4.44336 50.1893 5.0147 49.1211 6.15719C48.0525 7.29968 47.5186 8.64354 47.5186 10.1878C47.5186 11.4363 47.8835 12.4306 48.6132 13.1708C49.3431 13.9118 50.3215 14.2816 51.549 14.2816C52.1625 14.2816 52.7866 14.1544 53.4212 13.9007C54.0559 13.6469 54.5526 13.3086 54.913 12.8852C54.913 12.9065 54.8914 13.0013 54.8496 13.1705C54.8068 13.3401 54.7859 13.4674 54.7859 13.5513C54.7859 13.8903 54.9231 14.0591 55.1986 14.0591H57.3885C57.7899 14.0591 58.0229 13.8585 58.0862 13.4562L59.3875 5.1732C59.4084 5.04613 59.3768 4.93002 59.2923 4.82409C59.2072 4.71855 59.1017 4.66549 58.9748 4.66549ZM54.8335 10.9177C54.2939 11.4466 53.6433 11.7109 52.8817 11.7109C52.2679 11.7109 51.7712 11.542 51.3901 11.2032C51.0091 10.8655 50.8187 10.4 50.8187 9.80688C50.8187 9.02466 51.0832 8.36291 51.6124 7.82349C52.1405 7.28396 52.797 7.0143 53.5798 7.0143C54.1717 7.0143 54.6637 7.1888 55.0555 7.53772C55.4465 7.88692 55.6428 8.36825 55.6428 8.98198C55.6426 9.74354 55.3729 10.389 54.8335 10.9177Z" fill="#009CDE"/>
<path d="M22.9205 4.66549H20.5085C20.2119 4.66549 20.0325 5.0147 19.9689 5.71302C19.3977 4.86697 18.3927 4.44336 16.954 4.44336C15.4307 4.44336 14.1347 5.0147 13.0664 6.15719C11.9979 7.29968 11.4639 8.64354 11.4639 10.1878C11.4639 11.4363 11.8289 12.4306 12.5588 13.1708C13.2887 13.9118 14.267 14.2816 15.4943 14.2816C16.0864 14.2816 16.7003 14.1544 17.3349 13.9007C17.9695 13.6469 18.4773 13.3086 18.8582 12.8852C18.7733 13.1389 18.7312 13.3611 18.7312 13.5513C18.7312 13.8903 18.8686 14.0591 19.1437 14.0591H21.3334C21.7351 14.0591 21.9681 13.8585 22.0316 13.4562L23.3327 5.1732C23.3536 5.04613 23.322 4.93002 23.2376 4.82409C23.1529 4.71855 23.0472 4.66549 22.9205 4.66549ZM18.779 10.9334C18.2394 11.4523 17.5779 11.7109 16.7956 11.7109C16.1817 11.7109 15.6898 11.542 15.3199 11.2032C14.9494 10.8655 14.7644 10.4 14.7644 9.80688C14.7644 9.02466 15.0288 8.36291 15.5579 7.82349C16.0865 7.28396 16.7424 7.0142 17.5255 7.0142C18.1176 7.0142 18.6094 7.1888 19.0012 7.53772C19.3923 7.88692 19.5883 8.36825 19.5883 8.98198C19.5882 9.76478 19.3185 10.4156 18.779 10.9334Z" fill="#0041B8"/>
<path d="M47.0574 0.840808C46.2428 0.280722 45.18 0 43.8681 0H38.8221C38.3989 0 38.166 0.201084 38.124 0.602863L36.0612 13.5506C36.0397 13.6778 36.0715 13.7941 36.1564 13.8998C36.2403 14.0057 36.3466 14.0584 36.4736 14.0584H39.0758C39.3296 14.0584 39.4988 13.9211 39.5837 13.646L40.1549 9.96486C40.176 9.79569 40.25 9.65814 40.3771 9.55221C40.5041 9.44648 40.6626 9.37732 40.8532 9.3457C41.0434 9.31427 41.223 9.29836 41.3926 9.29836C41.5618 9.29836 41.7626 9.30913 41.9955 9.33018C42.2281 9.35123 42.3767 9.3616 42.4398 9.3616C44.2595 9.3616 45.6873 8.84895 46.7241 7.82248C47.7609 6.7966 48.2792 5.37397 48.2792 3.55403C48.2793 2.30582 47.8718 1.40138 47.0574 0.840517V0.840808ZM43.8047 6.06133C43.3392 6.37862 42.6409 6.53721 41.7102 6.53721L40.6945 6.56903L41.2341 3.17321C41.276 2.94079 41.4135 2.82419 41.6465 2.82419H42.2175C42.6831 2.82419 43.0532 2.84544 43.3287 2.88763C43.6032 2.93012 43.8681 3.06214 44.122 3.28418C44.376 3.50641 44.5028 3.82923 44.5028 4.25215C44.5028 5.14107 44.2698 5.74374 43.8047 6.06133Z" fill="#009CDE"/>
</svg>
