<svg width="32" height="32" viewBox="0 0 32 32" fill="none" xmlns="http://www.w3.org/2000/svg">
<path d="M20.8839 18.2169C21.372 17.7287 21.372 16.9373 20.8839 16.4491C20.3957 15.961 19.6043 15.961 19.1161 16.4491L20.8839 18.2169ZM14.6667 22.6663L13.7828 23.5502C14.2709 24.0384 15.0624 24.0384 15.5506 23.5502L14.6667 22.6663ZM12.8839 19.1158C12.3957 18.6276 11.6043 18.6276 11.1161 19.1158C10.628 19.6039 10.628 20.3954 11.1161 20.8836L12.8839 19.1158ZM19.1161 16.4491L13.7828 21.7825L15.5506 23.5502L20.8839 18.2169L19.1161 16.4491ZM15.5506 21.7825L12.8839 19.1158L11.1161 20.8836L13.7828 23.5502L15.5506 21.7825Z" fill="#2EAADA"/>
<path d="M24.0003 28H8.00033C7.26395 28 6.66699 27.403 6.66699 26.6667L6.66699 5.33333C6.66699 4.59696 7.26395 4 8.00033 4L18.0844 4C18.4559 4 18.8104 4.15492 19.0628 4.42746L24.9787 10.8166C25.2069 11.0631 25.3337 11.3866 25.3337 11.7225L25.3337 26.6667C25.3337 27.403 24.7367 28 24.0003 28Z" stroke="#2EAADA" stroke-width="2.5" stroke-linecap="round" stroke-linejoin="round"/>
<path d="M25.333 12L18.6663 12C17.93 12 17.333 11.403 17.333 10.6667L17.333 4" stroke="#2EAADA" stroke-width="2.5" stroke-linecap="round" stroke-linejoin="round"/>
</svg>
