<svg width="32" height="32" viewBox="0 0 32 32" fill="none" xmlns="http://www.w3.org/2000/svg">
<path d="M13.6933 27.6901L12.5753 27.131L13.6933 27.6901ZM11.2264 27.4859L12.4211 27.1183L11.2264 27.4859ZM18.7564 18.1601L18.1974 17.0421L18.7564 18.1601ZM18.1601 18.7564L19.2782 19.3154L18.1601 18.7564ZM27.4859 11.2264L27.1183 12.4211L27.4859 11.2264ZM27.6901 13.6933L28.2491 14.8113L27.6901 13.6933ZM6.40706 4.74058L6.03946 5.9353L6.40706 4.74058ZM4.74058 6.40706L5.9353 6.03945L4.74058 6.40706ZM6.03946 5.9353L27.1183 12.4211L27.8535 10.0316L6.77467 3.54585L6.03946 5.9353ZM27.131 12.5753L18.1974 17.0421L19.3154 19.2782L28.2491 14.8113L27.131 12.5753ZM17.0421 18.1974L12.5753 27.131L14.8113 28.2491L19.2782 19.3154L17.0421 18.1974ZM12.4211 27.1183L5.9353 6.03945L3.54585 6.77467L10.0316 27.8535L12.4211 27.1183ZM12.5753 27.131C12.5654 27.1508 12.5575 27.1594 12.5548 27.1623C12.5517 27.1654 12.5491 27.1672 12.546 27.1689C12.5385 27.1728 12.5204 27.179 12.4939 27.1768C12.4674 27.1746 12.4505 27.1656 12.4438 27.1604C12.441 27.1583 12.4387 27.156 12.4362 27.1524C12.4339 27.1492 12.4276 27.1394 12.4211 27.1183L10.0316 27.8535C10.717 30.081 13.7691 30.3336 14.8113 28.2491L12.5753 27.131ZM18.1974 17.0421C17.6974 17.2921 17.2921 17.6975 17.0421 18.1974L19.2782 19.3154C19.2862 19.2993 19.2993 19.2862 19.3154 19.2782L18.1974 17.0421ZM27.1183 12.4211C27.1394 12.4276 27.1492 12.4339 27.1524 12.4362C27.156 12.4387 27.1583 12.441 27.1604 12.4438C27.1656 12.4505 27.1746 12.4674 27.1768 12.4939C27.179 12.5204 27.1728 12.5385 27.1689 12.546C27.1672 12.5491 27.1654 12.5517 27.1623 12.5548C27.1594 12.5575 27.1508 12.5654 27.131 12.5753L28.2491 14.8113C30.3336 13.7691 30.081 10.717 27.8535 10.0316L27.1183 12.4211ZM6.77467 3.54585C4.79254 2.93597 2.93597 4.79254 3.54585 6.77467L5.9353 6.03945C5.92698 6.01242 5.92998 6.00078 5.93138 5.99558C5.93396 5.98598 5.94107 5.97097 5.95602 5.95602C5.97097 5.94107 5.98598 5.93396 5.99558 5.93138C6.00079 5.92998 6.01243 5.92698 6.03946 5.9353L6.77467 3.54585Z" fill="#2EAADA"/>
</svg>
