<svg width="30" height="30" viewBox="0 0 30 30" fill="none" xmlns="http://www.w3.org/2000/svg">
<path d="M0 10C0 7.79086 1.79086 6 4 6H22V14H0V10Z" fill="url(#paint0_linear_2056_703)"/>
<path d="M18 18C22.9706 18 27 13.9706 27 9C27 4.02944 22.9706 0 18 0C13.0294 0 9 4.02944 9 9C9 13.9706 13.0294 18 18 18Z" fill="#C6C100"/>
<path d="M19.5 18C24.4706 18 28.5 13.9706 28.5 9C28.5 4.02944 24.4706 0 19.5 0C14.5294 0 10.5 4.02944 10.5 9C10.5 13.9706 14.5294 18 19.5 18Z" fill="#FDFFAB"/>
<g style="mix-blend-mode:multiply">
<g style="mix-blend-mode:multiply">
<path d="M9.44727 12C10.0712 13.7986 11.2256 15.3556 12.7519 16.4569C14.2781 17.5582 16.1012 18.1497 17.9702 18.15C18.2239 18.15 18.4744 18.15 18.7217 18.1176C18.969 18.0853 19.2227 18.15 19.4763 18.15C21.3454 18.1497 23.1684 17.5582 24.6946 16.4569C26.2209 15.3556 27.3754 13.7986 27.9993 12H9.44727Z" fill="#C7C03D"/>
</g>
</g>
<path d="M0 10V27C0 28.6569 1.34326 30 3 30H30V14H4C1.79077 14 0 12.2091 0 10Z" fill="url(#paint1_linear_2056_703)"/>
<path d="M23.5 24C24.8807 24 26 22.8807 26 21.5C26 20.1193 24.8807 19 23.5 19C22.1193 19 21 20.1193 21 21.5C21 22.8807 22.1193 24 23.5 24Z" fill="#383834"/>
<path fill-rule="evenodd" clip-rule="evenodd" d="M14 8.88284C14 8.54592 14.2731 8.34912 14.61 8.34912H23.3899C23.7268 8.34912 24 8.54592 24 8.88284C24 9.21975 23.7268 9.45521 23.3899 9.45521H14.61C14.2731 9.45521 14 9.21975 14 8.88284Z" fill="#383834"/>
<path fill-rule="evenodd" clip-rule="evenodd" d="M19.2071 5.74393C19.4093 5.47445 19.7917 5.41992 20.0612 5.62214L23.7565 8.39504C24.026 8.59726 24.0805 8.97964 23.8783 9.24912C23.676 9.5186 23.2937 9.57313 23.0242 9.37091L19.3289 6.59801C19.0594 6.3958 19.0049 6.01341 19.2071 5.74393Z" fill="#383834"/>
<path fill-rule="evenodd" clip-rule="evenodd" d="M23.8783 8.51688C24.0805 8.78636 24.026 9.16875 23.7565 9.37096L20.0612 12.1438C19.7917 12.346 19.4093 12.2915 19.2071 12.022C19.0049 11.7525 19.0594 11.3702 19.3289 11.1679L23.0242 8.39509C23.2937 8.19287 23.676 8.2474 23.8783 8.51688Z" fill="#383834"/>
<defs>
<linearGradient id="paint0_linear_2056_703" x1="11" y1="6" x2="11" y2="14" gradientUnits="userSpaceOnUse">
<stop stop-color="#5C73F3"/>
<stop offset="1" stop-color="#3B3B3B"/>
</linearGradient>
<linearGradient id="paint1_linear_2056_703" x1="-4.19095e-09" y1="21" x2="30" y2="21" gradientUnits="userSpaceOnUse">
<stop stop-color="#5C73F3"/>
<stop offset="1" stop-color="#FFE4F9"/>
</linearGradient>
</defs>
</svg>
