<svg width="30" height="30" viewBox="0 0 30 30" fill="none" xmlns="http://www.w3.org/2000/svg">
<path d="M0 10C0 7.79086 1.79086 6 4 6H22V14H0V10Z" fill="url(#paint0_linear_2057_747)"/>
<path d="M18 18C22.9706 18 27 13.9706 27 9C27 4.02944 22.9706 0 18 0C13.0294 0 9 4.02944 9 9C9 13.9706 13.0294 18 18 18Z" fill="#C6C100"/>
<path d="M19.5 18C24.4706 18 28.5 13.9706 28.5 9C28.5 4.02944 24.4706 0 19.5 0C14.5294 0 10.5 4.02944 10.5 9C10.5 13.9706 14.5294 18 19.5 18Z" fill="#FDFFAB"/>
<g style="mix-blend-mode:multiply">
<g style="mix-blend-mode:multiply">
<path d="M9.44727 12C10.0712 13.7986 11.2256 15.3556 12.7519 16.4569C14.2781 17.5582 16.1012 18.1497 17.9702 18.15C18.2239 18.15 18.4744 18.15 18.7217 18.1176C18.969 18.0853 19.2227 18.15 19.4763 18.15C21.3454 18.1497 23.1684 17.5582 24.6946 16.4569C26.2209 15.3556 27.3754 13.7986 27.9993 12H9.44727Z" fill="#C7C03D"/>
</g>
</g>
<path fill-rule="evenodd" clip-rule="evenodd" d="M17.8682 11.565C17.8682 11.2188 18.149 10.938 18.4952 10.938H20.2052C20.5515 10.938 20.8322 11.2188 20.8322 11.565C20.8322 11.9113 20.5515 12.192 20.2052 12.192H18.4952C18.149 12.192 17.8682 11.9113 17.8682 11.565Z" fill="#383834"/>
<path fill-rule="evenodd" clip-rule="evenodd" d="M16.7852 5.35214C16.1871 5.35214 15.7022 5.83702 15.7022 6.43514C15.7022 7.03327 16.1871 7.51814 16.7852 7.51814C17.3834 7.51814 17.8682 7.03327 17.8682 6.43514C17.8682 5.83702 17.3834 5.35214 16.7852 5.35214ZM14.4482 6.43514C14.4482 5.14446 15.4946 4.09814 16.7852 4.09814C18.0759 4.09814 19.1222 5.14446 19.1222 6.43514C19.1222 7.72583 18.0759 8.77214 16.7852 8.77214C15.4946 8.77214 14.4482 7.72583 14.4482 6.43514Z" fill="#383834"/>
<path fill-rule="evenodd" clip-rule="evenodd" d="M21.9151 5.35214C21.317 5.35214 20.8321 5.83702 20.8321 6.43514C20.8321 7.03327 21.317 7.51814 21.9151 7.51814C22.5133 7.51814 22.9981 7.03327 22.9981 6.43514C22.9981 5.83702 22.5133 5.35214 21.9151 5.35214ZM19.5781 6.43514C19.5781 5.14445 20.6245 4.09814 21.9151 4.09814C23.2058 4.09814 24.2521 5.14446 24.2521 6.43514C24.2521 7.72583 23.2058 8.77214 21.9151 8.77214C20.6245 8.77214 19.5781 7.72584 19.5781 6.43514Z" fill="#383834"/>
<path fill-rule="evenodd" clip-rule="evenodd" d="M16.7852 10.482C16.1871 10.482 15.7022 10.9669 15.7022 11.565C15.7022 12.1632 16.1871 12.648 16.7852 12.648C17.3834 12.648 17.8682 12.1632 17.8682 11.565C17.8682 10.9669 17.3834 10.482 16.7852 10.482ZM14.4482 11.565C14.4482 10.2744 15.4946 9.22803 16.7852 9.22803C18.0759 9.22803 19.1222 10.2744 19.1222 11.565C19.1222 12.8557 18.0759 13.902 16.7852 13.902C15.4946 13.902 14.4482 12.8557 14.4482 11.565Z" fill="#383834"/>
<path fill-rule="evenodd" clip-rule="evenodd" d="M21.9151 10.482C21.317 10.482 20.8321 10.9669 20.8321 11.565C20.8321 12.1632 21.317 12.648 21.9151 12.648C22.5133 12.648 22.9981 12.1632 22.9981 11.565C22.9981 10.9669 22.5133 10.482 21.9151 10.482ZM19.5781 11.565C19.5781 10.2744 20.6245 9.22803 21.9151 9.22803C23.2058 9.22803 24.2521 10.2744 24.2521 11.565C24.2521 12.8557 23.2058 13.902 21.9151 13.902C20.6245 13.902 19.5781 12.8557 19.5781 11.565Z" fill="#383834"/>
<path fill-rule="evenodd" clip-rule="evenodd" d="M17.8682 6.43511C17.8682 6.08883 18.149 5.80811 18.4952 5.80811H20.2052C20.5515 5.80811 20.8322 6.08883 20.8322 6.43511C20.8322 6.7814 20.5515 7.06211 20.2052 7.06211H18.4952C18.149 7.06211 17.8682 6.7814 17.8682 6.43511Z" fill="#383834"/>
<path fill-rule="evenodd" clip-rule="evenodd" d="M21.1496 7.20073C21.3945 7.44559 21.3945 7.84258 21.1496 8.08744L18.4376 10.7994C18.1927 11.0443 17.7957 11.0443 17.5509 10.7994C17.306 10.5545 17.306 10.1575 17.5509 9.91274L20.2629 7.20073C20.5077 6.95587 20.9047 6.95587 21.1496 7.20073Z" fill="#383834"/>
<path d="M0 10V27C0 28.6569 1.34326 30 3 30H30V14H4C1.79077 14 0 12.2091 0 10Z" fill="url(#paint1_linear_2057_747)"/>
<path d="M23.5 24C24.8807 24 26 22.8807 26 21.5C26 20.1193 24.8807 19 23.5 19C22.1193 19 21 20.1193 21 21.5C21 22.8807 22.1193 24 23.5 24Z" fill="#383834"/>
<defs>
<linearGradient id="paint0_linear_2057_747" x1="11" y1="6" x2="11" y2="14" gradientUnits="userSpaceOnUse">
<stop stop-color="#5C73F3"/>
<stop offset="1" stop-color="#3B3B3B"/>
</linearGradient>
<linearGradient id="paint1_linear_2057_747" x1="-4.19095e-09" y1="21" x2="30" y2="21" gradientUnits="userSpaceOnUse">
<stop stop-color="#5C73F3"/>
<stop offset="1" stop-color="#FFE4F9"/>
</linearGradient>
</defs>
</svg>
