<svg width="48" height="16" viewBox="0 0 48 16" fill="none" xmlns="http://www.w3.org/2000/svg">
<path d="M35.4227 1.87076L34.494 3.91815H36.3565L35.4227 1.87076ZM24.7056 3.13949C24.8807 3.0564 24.9837 2.87567 24.9837 2.65123C24.9837 2.43129 24.8754 2.27201 24.7004 2.19716C24.541 2.11418 24.2957 2.1046 24.0605 2.1046H22.3989V3.24537H24.0382C24.3007 3.24542 24.5201 3.24192 24.7056 3.13949ZM3.41466 1.87076L2.49642 3.91815H4.33843L3.41466 1.87076ZM46.1664 14.987H43.5605V13.8854H46.1558C46.4131 13.8854 46.5933 13.8547 46.7018 13.7581C46.8044 13.6721 46.8624 13.5504 46.8613 13.4232C46.8613 13.2735 46.796 13.1547 46.6964 13.0835C46.5987 13.0051 46.456 12.9694 46.2209 12.9694C44.954 12.9303 43.3733 13.005 43.3733 11.3794C43.3733 10.6344 43.8934 9.85016 45.3094 9.85016H47.9973V8.82807H45.5C44.7464 8.82807 44.1988 8.99226 43.8112 9.24767V8.82807H40.1174C39.5268 8.82807 38.8335 8.96124 38.5056 9.24767V8.82807H31.9092V9.24767C31.3843 8.9031 30.4984 8.82807 30.0898 8.82807H25.7388V9.24767C25.3236 8.88177 24.3998 8.82807 23.8371 8.82807H18.9676L17.8535 9.92513L16.8098 8.82807H9.53584V15.9965H16.6726L17.8206 14.8818L18.9022 15.9965L23.3013 16V14.3137H23.7339C24.3176 14.3222 25.006 14.3007 25.6135 14.0618V15.9963H29.242V14.1278H29.417C29.6403 14.1278 29.6624 14.1364 29.6624 14.3394V15.9959H40.6854C41.3853 15.9959 42.1169 15.8331 42.5219 15.537V15.9959H46.0184C46.7459 15.9959 47.4565 15.9031 47.9971 15.6655V14.3302C47.6695 14.7662 47.0305 14.9873 46.1662 14.9873L46.1664 14.987ZM23.7917 13.2944H22.108V15.0174H19.4853L17.8237 13.3169L16.097 15.0174H10.752V9.88043H16.1792L17.8393 11.5643L19.5557 9.88043H23.8674C24.9383 9.88043 26.1414 10.1502 26.1414 11.5728C26.1414 12.9998 24.9712 13.2944 23.7917 13.2944ZM31.8879 13.0615C32.0785 13.3122 32.106 13.5463 32.1115 13.9991V15.0175H30.7567V14.3748C30.7567 14.0658 30.7895 13.6081 30.5386 13.3693C30.3416 13.1853 30.041 13.1414 29.5485 13.1414H28.1065V15.0175H26.7507V9.88048H29.8659C30.5493 9.88048 31.0467 9.90812 31.4895 10.1229C31.9154 10.3569 32.1834 10.6776 32.1834 11.2636C32.1833 12.0835 31.5822 12.5017 31.227 12.6303C31.5272 12.7311 31.7726 12.9118 31.8879 13.0615ZM37.4619 10.9428H34.302V11.8767H37.3846V12.9248H34.302V13.9469L37.4619 13.9515V15.0174H32.9583V9.88043H37.4619V10.9428ZM40.9293 15.0174H38.3012V13.9158H40.9188C41.1748 13.9158 41.3563 13.885 41.47 13.7885C41.5627 13.7091 41.6295 13.5936 41.6295 13.4537C41.6295 13.3039 41.5572 13.185 41.4648 13.1138C41.3615 13.0355 41.2191 13 40.9842 13C39.7223 12.9606 38.1419 13.0353 38.1419 11.4099C38.1419 10.6648 38.6566 9.88048 40.0712 9.88048H42.7765V10.9737H40.3011C40.0557 10.9737 39.8962 10.9822 39.7606 11.0667C39.6126 11.1499 39.5578 11.2733 39.5578 11.4361C39.5578 11.6299 39.6833 11.7618 39.853 11.8188C39.9954 11.8638 40.1482 11.877 40.3781 11.877L41.1046 11.895C41.8368 11.911 42.3399 12.0265 42.6455 12.308C42.9081 12.5553 43.0492 12.8677 43.0492 13.3963C43.0491 14.5015 42.2901 15.0174 40.9293 15.0174ZM30.4638 11.0257C30.3008 10.9376 30.0602 10.9329 29.82 10.9329H28.1584V12.0866H29.7978C30.0603 12.0866 30.2835 12.0781 30.4638 11.9807C30.6387 11.8845 30.7434 11.7074 30.7434 11.4877C30.7434 11.268 30.6387 11.1089 30.4638 11.0257ZM45.5404 10.9328C45.295 10.9328 45.1318 10.9413 44.9944 11.0256C44.852 11.1089 44.7973 11.2322 44.7973 11.3952C44.7973 11.5889 44.9175 11.7208 45.0924 11.7779C45.2348 11.8229 45.3875 11.8361 45.6123 11.8361L46.3438 11.8538C47.0816 11.8704 47.5745 11.986 47.8748 12.2675C47.9295 12.3065 47.9624 12.3505 48 12.3945V10.9329H45.5406L45.5404 10.9328ZM23.8384 10.9328H22.079V12.2411H23.8228C24.3412 12.2411 24.6636 12.0071 24.6639 11.5627C24.6636 11.1135 24.3256 10.9328 23.8384 10.9328ZM12.096 10.9328V11.8668H15.0583V12.9149H12.096V13.9369H15.4136L16.955 12.4299L15.479 10.9328H12.096ZM20.759 14.5251V10.4067L18.6873 12.4328L20.759 14.5251ZM12.2092 6.27746V7.16258H23.4827L23.4775 5.29007H23.6957C23.8485 5.29492 23.8929 5.30772 23.8929 5.53718V7.16264H29.7237V6.72668C30.194 6.95597 30.9253 7.16264 31.8879 7.16264H34.3409L34.8659 6.02193H36.0298L36.5431 7.16264H41.2701V6.07908L41.9857 7.16258H45.7738V0H42.0251V0.845919L41.5002 0H37.6535V0.845919L37.1715 0H31.9754C31.1055 0 30.3412 0.110436 29.7236 0.418255V0H26.1378V0.418255C25.7447 0.10097 25.2092 0 24.614 0H11.514L10.6351 1.85007L9.7324 0H5.60634V0.845919L5.15297 0H1.63413L6.15398e-05 3.40565V6.1298L2.41636 0.993985H4.42127L6.71608 5.85651V0.993985H8.91853L10.6844 4.47799L12.3067 0.993985H14.5534V6.1298H13.1703L13.1652 2.10752L11.2085 6.1298H10.0237L8.06202 2.10396V6.1298H5.31735L4.79887 4.98424H1.98934L1.46551 6.1298H0V7.16299H2.30565L2.82548 6.02223H3.98944L4.50791 7.16299H9.0442V6.29078L9.44907 7.16662H11.8039L12.2089 6.27763L12.2092 6.27746ZM29.9739 1.59262C30.41 1.18272 31.0932 0.993693 32.0231 0.993693H33.3294V2.09414H32.0505C31.5583 2.09414 31.2799 2.16075 31.0122 2.39845C30.7821 2.61465 30.6243 3.02344 30.6243 3.56172C30.6243 4.11197 30.7446 4.50866 30.9953 4.76781C31.203 4.97104 31.5807 5.03268 31.9358 5.03268H32.542L34.4437 0.993868H36.4655L38.7501 5.85155V0.993927H40.8046L43.1766 4.57072V0.993927H44.5588V6.12957H42.6466L40.0889 2.27493V6.12957H37.3407L36.8157 4.98401H34.0126L33.5031 6.12957H31.924C31.2682 6.12957 30.4378 5.99763 29.9675 5.56149C29.4932 5.12547 29.2467 4.53478 29.2467 3.60092C29.2464 2.83915 29.3937 2.14287 29.9739 1.59262ZM27.1984 0.993751H28.5752V6.12957H27.1984V0.993751ZM20.9909 0.993751H24.0945C24.7839 0.993751 25.2923 1.0104 25.7286 1.23975C26.1554 1.46915 26.4113 1.80408 26.4113 2.37683C26.4113 3.19576 25.8105 3.61875 25.4607 3.74584C25.7558 3.84809 26.0081 4.0287 26.1283 4.17829C26.3188 4.43375 26.3517 4.66193 26.3517 5.12056V6.12951H24.9907L24.9856 5.48185C24.9856 5.17274 25.0181 4.72831 24.7726 4.48138C24.5755 4.30082 24.2749 4.2615 23.789 4.2615H22.3405V6.12957H20.9911L20.9909 0.993751ZM15.5512 0.993751H20.059V2.06323H16.9007V2.98897H19.9831V4.04174H16.9007V5.06739H20.059V6.12951H15.5512V0.993751Z" fill="#FFFFFF"/>
</svg>
