<svg width="81" height="20" viewBox="0 0 81 20" fill="none" xmlns="http://www.w3.org/2000/svg">
<path d="M78.335 14.3291C77.0675 14.3291 76.04 15.3566 76.04 16.6242C76.04 17.8915 77.0675 18.9191 78.335 18.9191C79.6024 18.9191 80.63 17.8915 80.63 16.6242C80.63 15.3566 79.6024 14.3291 78.335 14.3291Z" fill="#0E0E0F"/>
<path d="M70.7955 7.2284V6.44701H74.4526V18.6621H70.7955V17.8814C69.7623 18.586 68.5152 19.0002 67.17 19.0002C63.6103 19.0002 60.7246 16.1145 60.7246 12.5548C60.7246 8.99508 63.6103 6.10938 67.17 6.10938C68.5152 6.10938 69.7623 6.52358 70.7955 7.2284ZM67.4694 15.6976C69.2996 15.6976 70.7832 14.2905 70.7832 12.5548C70.7832 10.8191 69.2996 9.41231 67.4694 9.41231C65.6391 9.41231 64.1556 10.8191 64.1556 12.5548C64.1556 14.2905 65.6391 15.6976 67.4694 15.6976Z" fill="#0E0E0F"/>
<path d="M54.2267 6.11816C52.7658 6.11816 51.3832 6.57172 50.4588 7.82305V6.44742H46.8174V18.6618H50.5035V12.2427C50.5035 10.3852 51.7492 9.47559 53.2489 9.47559C54.8562 9.47559 55.7803 10.4358 55.7803 12.2174V18.6618H59.4331V10.894C59.4331 8.05135 57.173 6.11816 54.2267 6.11816Z" fill="#0E0E0F"/>
<path d="M41.5276 8.0377V6.44678H37.7832V18.6617H41.536V12.9586C41.536 11.0345 43.6214 10.0003 45.0684 10.0003C45.0832 10.0003 45.0971 10.0017 45.1119 10.0019V6.44749C43.6267 6.44749 42.2607 7.0834 41.5276 8.0377Z" fill="#0E0E0F"/>
<path d="M32.2133 7.2284V6.44701H35.8706V18.6621H32.2133V17.8814C31.1801 18.586 29.933 19.0002 28.588 19.0002C25.0283 19.0002 22.1426 16.1145 22.1426 12.5548C22.1426 8.99508 25.0283 6.10938 28.588 6.10938C29.933 6.10938 31.1801 6.52358 32.2133 7.2284ZM28.8872 15.6976C30.7174 15.6976 32.2011 14.2905 32.2011 12.5548C32.2011 10.8191 30.7174 9.41231 28.8872 9.41231C27.0571 9.41231 25.5734 10.8191 25.5734 12.5548C25.5734 14.2905 27.0571 15.6976 28.8872 15.6976Z" fill="#0E0E0F"/>
<path d="M16.8154 18.6619H20.6433V1.00342H16.8154V18.6619Z" fill="#0E0E0F"/>
<path d="M14.1771 1H10.2105C10.2105 4.25112 8.71573 7.23512 6.1096 9.18736L4.53809 10.3643L10.6272 18.6674H15.6336L10.0308 11.0272C12.6866 8.38263 14.1771 4.8247 14.1771 1Z" fill="#0E0E0F"/>
<path d="M0 18.6666H4.05334V1H0V18.6666Z" fill="#0E0E0F"/>
</svg>
