<svg width="44" height="10" viewBox="0 0 44 10" fill="none" xmlns="http://www.w3.org/2000/svg">
<path d="M44 8.66799V8.70003C43.9968 9.4037 43.4279 9.97176 42.731 9.96855C42.0342 9.96535 41.4706 9.39088 41.4748 8.68721C41.478 7.98247 42.0469 7.41548 42.7437 7.41868H42.7543C43.4395 7.41655 43.9979 7.97607 44 8.66799Z" fill="#F4B6C7"/>
<path d="M36.8817 8.18343C35.9194 8.2507 35.0851 7.5182 35.0174 6.54652C34.9508 5.57483 35.6762 4.73235 36.6396 4.66402C36.6766 4.66188 36.7147 4.65974 36.7527 4.65974C37.715 4.59247 38.5504 5.32497 38.617 6.29666C38.6837 7.26834 37.9582 8.11189 36.9959 8.17916C36.9579 8.18236 36.9198 8.18343 36.8817 8.18343ZM38.6329 3.0239V3.46276C37.0139 2.35333 34.8112 2.77938 33.7125 4.41415C32.6138 6.04893 33.0357 8.27313 34.6547 9.38255C35.856 10.2058 37.4327 10.2058 38.6329 9.38255V9.82141H40.6304V3.02283L38.6329 3.0239Z" fill="#F4B6C7"/>
<path d="M32.4282 5.48912V9.79548H30.4307V6.212C30.4307 5.22751 29.9252 4.69362 29.056 4.69362C28.9862 4.68187 28.9143 4.68187 28.8445 4.69362C28.0683 4.76516 27.4931 5.45281 27.5523 6.23656V9.80723H25.5431V3.00866H27.529V3.7796C28.0176 3.14 28.7863 2.78442 29.5847 2.83034C29.6439 2.83034 29.7137 2.81859 29.7729 2.81859C31.2365 2.81646 32.4251 4.01131 32.4282 5.48912Z" fill="#F4B6C7"/>
<path d="M24.6139 3.03172V5.00072H24.5906C23.8039 5.00072 22.664 5.5816 22.664 6.64939V9.82925H20.6188V3.03172H22.6513V3.92119C23.1409 3.34352 23.861 3.01784 24.6139 3.03172Z" fill="#F4B6C7"/>
<path d="M15.8234 8.16931C14.859 8.17358 14.0733 7.3877 14.069 6.41281C14.0648 5.43792 14.8442 4.64563 15.8086 4.64136C16.773 4.63708 17.5587 5.42404 17.5629 6.39786V6.40106C17.5312 7.35993 16.7719 8.13194 15.8234 8.16931ZM17.5745 3.00871V3.44757C16.994 3.04181 16.3066 2.82292 15.6002 2.81865C13.6408 2.85282 12.0789 4.48439 12.1138 6.46299C12.1466 8.39355 13.6883 9.95145 15.6002 9.98455C16.3056 9.98455 16.9929 9.76992 17.5745 9.36737V9.80623H19.5721V3.00765L17.5745 3.00871Z" fill="#F4B6C7"/>
<path d="M11.282 4.15474e-05H9.19028V9.82367H11.282V4.15474e-05Z" fill="#F4B6C7"/>
<path d="M2.20903 4.15474e-05H0V9.82367H2.20903V4.15474e-05Z" fill="#F4B6C7"/>
<path d="M8.5291 9.82362H5.78815L2.47512 5.20865L3.33273 4.55624C4.74655 3.47777 5.57455 1.78961 5.56503 0H7.72648C7.73811 2.08752 6.92704 4.09389 5.47092 5.57597L8.5291 9.82362Z" fill="#F4B6C7"/>
</svg>
