<svg width="44" height="15" viewBox="0 0 44 15" fill="none" xmlns="http://www.w3.org/2000/svg">
<path d="M41.0389 0.773438H38.2729C37.4367 0.773438 36.7935 1.03074 36.4075 1.86697L31.1328 13.8959H34.8637C34.8637 13.8959 35.5069 12.2877 35.6356 11.9018C36.0216 11.9018 39.6881 11.9018 40.2027 11.9018C40.3314 12.352 40.653 13.8315 40.653 13.8315H43.9979L41.0389 0.773438ZM36.6648 9.20009C36.9864 8.42818 38.08 5.53353 38.08 5.53353C38.08 5.59785 38.4016 4.76162 38.5303 4.31134L38.7876 5.4692C38.7876 5.4692 39.4951 8.62116 39.6238 9.26441H36.6648V9.20009Z" fill="#3362AB"/>
<path d="M31.3918 9.58565C31.3918 12.2873 28.9475 14.0884 25.1522 14.0884C23.5441 14.0884 22.0003 13.7668 21.1641 13.3809L21.6787 10.4219L22.1289 10.6149C23.2868 11.1295 24.0587 11.3224 25.4739 11.3224C26.5031 11.3224 27.5966 10.9365 27.5966 10.0359C27.5966 9.457 27.1463 9.07105 25.7312 8.42779C24.3803 7.78454 22.5792 6.75533 22.5792 4.88989C22.5792 2.31687 25.0879 0.580078 28.6258 0.580078C29.9767 0.580078 31.1345 0.83738 31.8421 1.15901L31.3275 3.98933L31.0702 3.73203C30.4269 3.47473 29.5907 3.21743 28.3685 3.21743C27.0177 3.28175 26.3744 3.86068 26.3744 4.37528C26.3744 4.95421 27.1463 5.40449 28.3685 5.98342C30.4269 6.94831 31.3918 8.04184 31.3918 9.58565Z" fill="#3362AB"/>
<path d="M0 0.901834L0.0643255 0.644531H5.59632C6.36823 0.644531 6.94716 0.901833 7.14014 1.73807L8.36232 7.52737C7.14014 4.43974 4.30981 1.93104 0 0.901834Z" fill="#F9B50B"/>
<path d="M16.1469 0.77331L10.5505 13.8314H6.75534L3.53906 2.89605C5.85478 4.37554 7.78455 6.69126 8.49213 8.29939L8.87808 9.65023L12.3517 0.708984H16.1469V0.77331Z" fill="#3362AB"/>
<path d="M17.6264 0.708984H21.1643L18.9129 13.8314H15.375L17.6264 0.708984Z" fill="#3362AB"/>
</svg>
