<svg width="1067" height="1083" viewBox="0 0 1067 1083" fill="none" xmlns="http://www.w3.org/2000/svg">
<g opacity="0.25" filter="url(#filter0_f_2081_707)">
<path fill-rule="evenodd" clip-rule="evenodd" d="M559.026 206.138C626.509 201.361 691.094 182.732 754.287 189.441C820.318 196.451 780.002 218.452 806.316 232.39C822.831 241.139 878.878 246.605 879.841 255.948C880.861 265.84 806.813 272.109 811.425 281.961C817.679 295.322 909.381 303.384 908.326 316.802C907.417 328.35 845.323 335.856 806.508 344.445C761.438 354.418 727.73 372.606 660.489 371.642C582.386 370.524 549.865 350.305 491.445 339.932C458.158 334.022 422.05 329.222 388.556 323.359C357.491 317.921 329.616 312.188 300.056 306.427C262.286 299.066 179.082 294.765 188.78 284.425C200.387 272.051 335.894 275.146 341.162 262.602C348.649 244.776 191.339 232.65 217.709 215.548C237.454 202.743 350.483 215.144 417.176 213.305C466.033 211.958 512.557 209.428 559.026 206.138Z" fill="url(#paint0_linear_2081_707)"/>
</g>
<g opacity="0.25" filter="url(#filter1_f_2081_707)">
<path fill-rule="evenodd" clip-rule="evenodd" d="M705.164 352.378C726.656 336.739 747.225 275.756 767.351 297.717C788.38 320.664 775.541 392.688 783.921 438.317C789.181 466.956 807.031 484.85 807.337 515.435C807.662 547.819 784.079 568.343 785.548 600.594C787.54 644.334 816.745 670.725 816.409 714.649C816.12 752.453 796.344 777.027 783.982 805.144C769.628 837.792 758.893 897.331 737.478 894.177C712.604 890.515 702.246 824.326 683.641 790.369C673.04 771.021 661.54 755.31 650.873 736.115C640.979 718.312 632.102 699.545 622.688 680.686C610.659 656.589 584.16 642.509 587.248 608.66C590.945 568.151 634.101 578.285 635.779 537.219C638.164 478.865 588.064 439.166 596.462 383.183C602.75 341.263 638.748 381.859 659.988 375.84C675.548 371.43 690.365 363.146 705.164 352.378Z" fill="url(#paint1_linear_2081_707)"/>
</g>
<defs>
<filter id="filter0_f_2081_707" x="0.243195" y="0.243195" width="1095.85" height="559.193" filterUnits="userSpaceOnUse" color-interpolation-filters="sRGB">
<feFlood flood-opacity="0" result="BackgroundImageFix"/>
<feBlend mode="normal" in="SourceGraphic" in2="BackgroundImageFix" result="shape"/>
<feGaussianBlur stdDeviation="93.8784" result="effect1_foregroundBlur_2081_707"/>
</filter>
<filter id="filter1_f_2081_707" x="399.243" y="105.243" width="604.926" height="976.811" filterUnits="userSpaceOnUse" color-interpolation-filters="sRGB">
<feFlood flood-opacity="0" result="BackgroundImageFix"/>
<feBlend mode="normal" in="SourceGraphic" in2="BackgroundImageFix" result="shape"/>
<feGaussianBlur stdDeviation="93.8784" result="effect1_foregroundBlur_2081_707"/>
</filter>
<linearGradient id="paint0_linear_2081_707" x1="188" y1="371.679" x2="446.837" y2="-48.4097" gradientUnits="userSpaceOnUse">
<stop stop-color="#181818"/>
<stop offset="0.0666667" stop-color="#6CACE4"/>
<stop offset="0.133333" stop-color="#6DADE4"/>
<stop offset="0.2" stop-color="#6FAEE5"/>
<stop offset="0.266667" stop-color="#72B0E5"/>
<stop offset="0.333333" stop-color="#75B3E6"/>
<stop offset="0.4" stop-color="#79B6E7"/>
<stop offset="0.466667" stop-color="#7DB9E8"/>
<stop offset="0.533333" stop-color="#82BDEA"/>
<stop offset="0.6" stop-color="#86C0EB"/>
<stop offset="0.666667" stop-color="#8AC3EC"/>
<stop offset="0.733333" stop-color="#8DC6ED"/>
<stop offset="0.8" stop-color="#90C8ED"/>
<stop offset="0.866667" stop-color="#92C9EE"/>
<stop offset="0.933333" stop-color="#93CAEE"/>
<stop offset="1" stop-color="#343536"/>
</linearGradient>
<linearGradient id="paint1_linear_2081_707" x1="587" y1="894.298" x2="879.286" y2="848.147" gradientUnits="userSpaceOnUse">
<stop stop-color="#181818"/>
<stop offset="0.0666667" stop-color="#6CACE4"/>
<stop offset="0.133333" stop-color="#6DADE4"/>
<stop offset="0.2" stop-color="#6FAEE5"/>
<stop offset="0.266667" stop-color="#72B0E5"/>
<stop offset="0.333333" stop-color="#75B3E6"/>
<stop offset="0.4" stop-color="#79B6E7"/>
<stop offset="0.466667" stop-color="#7DB9E8"/>
<stop offset="0.533333" stop-color="#82BDEA"/>
<stop offset="0.6" stop-color="#86C0EB"/>
<stop offset="0.666667" stop-color="#8AC3EC"/>
<stop offset="0.733333" stop-color="#8DC6ED"/>
<stop offset="0.8" stop-color="#90C8ED"/>
<stop offset="0.866667" stop-color="#92C9EE"/>
<stop offset="0.933333" stop-color="#93CAEE"/>
<stop offset="1" stop-color="#343536"/>
</linearGradient>
</defs>
</svg>
