<svg width="32" height="32" viewBox="0 0 32 32" fill="none" xmlns="http://www.w3.org/2000/svg">
<path d="M18.667 20.083C17.9766 20.083 17.417 20.6427 17.417 21.333C17.417 22.0234 17.9766 22.583 18.667 22.583V20.083ZM25.3337 21.333H26.5837C26.5837 20.6427 26.024 20.083 25.3337 20.083V21.333ZM24.0837 27.9997C24.0837 28.69 24.6433 29.2497 25.3337 29.2497C26.024 29.2497 26.5837 28.69 26.5837 27.9997H24.0837ZM18.667 22.583H25.3337V20.083H18.667V22.583ZM24.0837 21.333V27.9997H26.5837V21.333H24.0837Z" fill="#2EAADA"/>
<path d="M6.11035 19.9961C6.85793 21.8464 8.10959 23.4499 9.72308 24.6243C11.3366 25.7987 13.2471 26.497 15.2377 26.6397C17.2282 26.7823 19.2188 26.3638 20.9833 25.4315C22.7478 24.4992 24.2154 23.0906 25.2192 21.3658" stroke="#2EAADA" stroke-width="2.5" stroke-linecap="round" stroke-linejoin="round"/>
<path d="M13.3337 11.9167C14.024 11.9167 14.5837 11.357 14.5837 10.6667C14.5837 9.97631 14.024 9.41667 13.3337 9.41667V11.9167ZM6.66699 10.6667H5.41699C5.41699 11.357 5.97664 11.9167 6.66699 11.9167V10.6667ZM7.91699 4C7.91699 3.30964 7.35735 2.75 6.66699 2.75C5.97664 2.75 5.41699 3.30964 5.41699 4H7.91699ZM13.3337 9.41667H6.66699V11.9167H13.3337V9.41667ZM7.91699 10.6667V4H5.41699V10.6667H7.91699Z" fill="#2EAADA"/>
<path d="M25.8901 12.0039C25.1426 10.1536 23.8909 8.55005 22.2774 7.37564C20.6639 6.20122 18.7534 5.50299 16.7628 5.36031C14.7723 5.21763 12.7816 5.63621 11.0172 6.56849C9.25267 7.50077 7.7851 8.90935 6.78125 10.6341" stroke="#2EAADA" stroke-width="2.5" stroke-linecap="round" stroke-linejoin="round"/>
</svg>
