<svg width="24" height="24" viewBox="0 0 24 24" fill="none" xmlns="http://www.w3.org/2000/svg">
<path d="M4.29289 8.70711C3.90237 8.31658 3.90237 7.68342 4.29289 7.29289C4.68342 6.90237 5.31658 6.90237 5.70711 7.29289L4.29289 8.70711ZM12 15L12.7071 15.7071C12.3166 16.0976 11.6834 16.0976 11.2929 15.7071L12 15ZM18.2929 7.29289C18.6834 6.90237 19.3166 6.90237 19.7071 7.29289C20.0976 7.68342 20.0976 8.31658 19.7071 8.70711L18.2929 7.29289ZM5.70711 7.29289L12.7071 14.2929L11.2929 15.7071L4.29289 8.70711L5.70711 7.29289ZM11.2929 14.2929L18.2929 7.29289L19.7071 8.70711L12.7071 15.7071L11.2929 14.2929Z" fill="#0D0F16"/>
</svg>
