<svg width="22" height="21" viewBox="0 0 22 21" fill="none" xmlns="http://www.w3.org/2000/svg">
<mask id="path-1-inside-1_921_4875" fill="white">
<path d="M18.5348 8.09275C18.8927 7.99797 19.2624 8.21098 19.3278 8.57531C19.6232 10.2207 19.4118 11.9229 18.7131 13.4531C17.9214 15.1873 16.5528 16.5933 14.8407 17.4315C13.1285 18.2698 11.1787 18.4884 9.32336 18.0502C7.46806 17.612 5.8221 16.5441 4.66593 15.0283C3.50976 13.5126 2.91492 11.6429 2.98276 9.73771C3.0506 7.83257 3.77692 6.00989 5.03798 4.58023C6.29903 3.15057 8.01678 2.20239 9.89855 1.89726C11.5591 1.628 13.2566 1.87415 14.7654 2.59394C15.0994 2.75332 15.2071 3.16624 15.0211 3.48626V3.48626C14.8351 3.80629 14.426 3.91166 14.0894 3.75758C12.8511 3.19063 11.4674 3.0008 10.1131 3.2204C8.53745 3.4759 7.09913 4.26983 6.04322 5.46692C4.98731 6.66401 4.37914 8.19019 4.32233 9.78542C4.26553 11.3806 4.7636 12.9462 5.73169 14.2154C6.69978 15.4845 8.07799 16.3788 9.63148 16.7457C11.185 17.1126 12.8176 16.9295 14.2513 16.2277C15.6849 15.5258 16.8308 14.3485 17.4938 12.8964C18.0636 11.6484 18.2463 10.2638 18.0269 8.91957C17.9673 8.55425 18.177 8.18752 18.5348 8.09275V8.09275Z"/>
</mask>
<path d="M18.5348 8.09275C18.8927 7.99797 19.2624 8.21098 19.3278 8.57531C19.6232 10.2207 19.4118 11.9229 18.7131 13.4531C17.9214 15.1873 16.5528 16.5933 14.8407 17.4315C13.1285 18.2698 11.1787 18.4884 9.32336 18.0502C7.46806 17.612 5.8221 16.5441 4.66593 15.0283C3.50976 13.5126 2.91492 11.6429 2.98276 9.73771C3.0506 7.83257 3.77692 6.00989 5.03798 4.58023C6.29903 3.15057 8.01678 2.20239 9.89855 1.89726C11.5591 1.628 13.2566 1.87415 14.7654 2.59394C15.0994 2.75332 15.2071 3.16624 15.0211 3.48626V3.48626C14.8351 3.80629 14.426 3.91166 14.0894 3.75758C12.8511 3.19063 11.4674 3.0008 10.1131 3.2204C8.53745 3.4759 7.09913 4.26983 6.04322 5.46692C4.98731 6.66401 4.37914 8.19019 4.32233 9.78542C4.26553 11.3806 4.7636 12.9462 5.73169 14.2154C6.69978 15.4845 8.07799 16.3788 9.63148 16.7457C11.185 17.1126 12.8176 16.9295 14.2513 16.2277C15.6849 15.5258 16.8308 14.3485 17.4938 12.8964C18.0636 11.6484 18.2463 10.2638 18.0269 8.91957C17.9673 8.55425 18.177 8.18752 18.5348 8.09275V8.09275Z" stroke="#6AC4E6" stroke-width="2.60208" mask="url(#path-1-inside-1_921_4875)"/>
<path d="M7.31445 8.27054L10.8562 12.1992L19.4575 2.6582" stroke="#6AC4E6" stroke-width="1.30104" stroke-linecap="round" stroke-linejoin="round"/>
</svg>
