<svg width="20" height="20" viewBox="0 0 20 20" fill="none" xmlns="http://www.w3.org/2000/svg">
<path d="M10 17.5C14.1421 17.5 17.5 14.1421 17.5 10C17.5 5.85786 14.1421 2.5 10 2.5C5.85786 2.5 2.5 5.85786 2.5 10C2.5 14.1421 5.85786 17.5 10 17.5Z" stroke="#2EAADA" stroke-width="2" stroke-miterlimit="10" stroke-linecap="round" stroke-linejoin="round"/>
<path d="M13.2071 9.04048C13.5976 8.64996 13.5976 8.01679 13.2071 7.62627C12.8166 7.23574 12.1834 7.23574 11.7929 7.62627L13.2071 9.04048ZM9.16667 11.6667L8.45956 12.3738C8.6471 12.5614 8.90145 12.6667 9.16667 12.6667C9.43188 12.6667 9.68624 12.5614 9.87377 12.3738L9.16667 11.6667ZM8.20711 9.29293C7.81658 8.90241 7.18342 8.90241 6.79289 9.29293C6.40237 9.68346 6.40237 10.3166 6.79289 10.7071L8.20711 9.29293ZM11.7929 7.62627L8.45956 10.9596L9.87377 12.3738L13.2071 9.04048L11.7929 7.62627ZM9.87377 10.9596L8.20711 9.29293L6.79289 10.7071L8.45956 12.3738L9.87377 10.9596Z" fill="#2EAADA"/>
</svg>
