<svg width="37" height="37" viewBox="0 0 37 37" fill="none" xmlns="http://www.w3.org/2000/svg">
<mask id="path-1-inside-1_2101_725" fill="white">
<path d="M31.4216 14.246C32.0559 14.078 32.7114 14.4556 32.8273 15.1015C33.3508 18.0181 32.9761 21.0356 31.7377 23.7482C30.3342 26.8223 27.9082 29.3147 24.8731 30.8006C21.838 32.2865 18.3816 32.6741 15.0928 31.8973C11.8039 31.1205 8.88619 29.2274 6.83669 26.5405C4.7872 23.8536 3.73274 20.5392 3.853 17.162C3.97326 13.7848 5.26079 10.5538 7.49621 8.01953C9.73163 5.48523 12.7766 3.80443 16.1124 3.26352C19.0559 2.78622 22.0651 3.22256 24.7396 4.4985C25.3318 4.78103 25.5227 5.513 25.193 6.0803C24.8633 6.6476 24.138 6.83438 23.5414 6.56125C21.3462 5.55624 18.8934 5.21973 16.4927 5.60901C13.6996 6.06192 11.1499 7.4693 9.27817 9.59134C7.40639 11.7134 6.32831 14.4188 6.22762 17.2466C6.12692 20.0744 7.00984 22.8496 8.72594 25.0994C10.442 27.3492 12.8851 28.9344 15.639 29.5848C18.3928 30.2352 21.2869 29.9107 23.8283 28.6665C26.3697 27.4223 28.401 25.3354 29.5762 22.7614C30.5862 20.549 30.9101 18.0945 30.5212 15.7117C30.4155 15.0641 30.7873 14.414 31.4216 14.246Z"/>
</mask>
<path d="M31.4216 14.246C32.0559 14.078 32.7114 14.4556 32.8273 15.1015C33.3508 18.0181 32.9761 21.0356 31.7377 23.7482C30.3342 26.8223 27.9082 29.3147 24.8731 30.8006C21.838 32.2865 18.3816 32.6741 15.0928 31.8973C11.8039 31.1205 8.88619 29.2274 6.83669 26.5405C4.7872 23.8536 3.73274 20.5392 3.853 17.162C3.97326 13.7848 5.26079 10.5538 7.49621 8.01953C9.73163 5.48523 12.7766 3.80443 16.1124 3.26352C19.0559 2.78622 22.0651 3.22256 24.7396 4.4985C25.3318 4.78103 25.5227 5.513 25.193 6.0803C24.8633 6.6476 24.138 6.83438 23.5414 6.56125C21.3462 5.55624 18.8934 5.21973 16.4927 5.60901C13.6996 6.06192 11.1499 7.4693 9.27817 9.59134C7.40639 11.7134 6.32831 14.4188 6.22762 17.2466C6.12692 20.0744 7.00984 22.8496 8.72594 25.0994C10.442 27.3492 12.8851 28.9344 15.639 29.5848C18.3928 30.2352 21.2869 29.9107 23.8283 28.6665C26.3697 27.4223 28.401 25.3354 29.5762 22.7614C30.5862 20.549 30.9101 18.0945 30.5212 15.7117C30.4155 15.0641 30.7873 14.414 31.4216 14.246Z" stroke="white" stroke-width="4.61262" mask="url(#path-1-inside-1_2101_725)"/>
<path d="M11.5312 14.5611L17.8095 21.5252L33.0568 4.6123" stroke="white" stroke-width="2.30631" stroke-linecap="round" stroke-linejoin="round"/>
</svg>
