<svg width="713" height="857" viewBox="0 0 713 857" fill="none" xmlns="http://www.w3.org/2000/svg">
<g opacity="0.5" filter="url(#filter0_f_1884_186)">
<path fill-rule="evenodd" clip-rule="evenodd" d="M383.639 163.011C413.017 162.338 443.452 192.319 452.549 259.704C461.662 327.2 444.116 393.746 420.514 436.143C395.813 480.514 363.014 508.568 337.849 465.74C311.86 421.51 307.74 334.847 318.642 262.771C328.373 198.436 355.249 163.661 383.639 163.011Z" fill="url(#paint0_linear_1884_186)"/>
</g>
<g opacity="0.5" filter="url(#filter1_f_1884_186)">
<path fill-rule="evenodd" clip-rule="evenodd" d="M371.718 375.957C382.398 366.75 392.619 330.848 402.62 343.777C413.071 357.287 406.69 399.689 410.854 426.552C413.468 443.413 422.338 453.947 422.491 471.954C422.652 491.019 410.933 503.102 411.663 522.089C412.653 547.84 427.166 563.377 426.999 589.236C426.855 611.492 417.028 625.96 410.885 642.513C403.752 661.734 398.417 696.785 387.776 694.929C375.415 692.773 370.269 653.806 361.023 633.814C355.755 622.424 350.041 613.174 344.74 601.874C339.824 591.393 335.412 580.344 330.734 569.241C324.757 555.055 311.589 546.765 313.123 526.837C314.96 502.988 336.406 508.955 337.239 484.779C338.424 450.424 313.528 427.052 317.702 394.093C320.827 369.414 338.715 393.314 349.269 389.77C357.001 387.174 364.364 382.297 371.718 375.957Z" fill="url(#paint1_linear_1884_186)"/>
</g>
<g opacity="0.5" filter="url(#filter2_f_1884_186)">
<path fill-rule="evenodd" clip-rule="evenodd" d="M305.106 381.459C315.578 384.007 327.242 371.867 336.095 385.628C344.94 399.38 346.127 428.901 350.5 452.023C354.462 472.972 358.265 493.066 360.633 515.378C363.648 543.783 373.799 577.744 366.286 600.766C358.286 625.28 340.48 601.538 328.571 613.626C318.856 623.486 315.176 655.368 305.106 662.862C294.176 670.995 282.128 666.294 271.498 656.097C260.01 645.076 245.742 631.603 242.481 602.783C239.041 572.375 255.156 546.886 255.579 515.378C255.979 485.503 241.851 460.224 244.783 431.185C247.681 402.477 258.724 379.155 270.294 369.617C281.578 360.316 293.245 378.573 305.106 381.459Z" fill="url(#paint2_linear_1884_186)"/>
</g>
<g opacity="0.5" filter="url(#filter3_f_1884_186)">
<path fill-rule="evenodd" clip-rule="evenodd" d="M305.106 190.459C315.578 193.007 327.242 180.867 336.095 194.628C344.94 208.38 346.127 237.901 350.5 261.023C354.462 281.972 358.265 302.066 360.633 324.378C363.648 352.783 373.799 386.744 366.286 409.766C358.286 434.28 340.48 410.538 328.571 422.626C318.856 432.486 315.176 464.368 305.106 471.862C294.176 479.995 282.128 475.294 271.498 465.097C260.01 454.076 245.742 440.603 242.481 411.783C239.041 381.375 255.156 355.886 255.579 324.378C255.979 294.503 241.851 269.224 244.783 240.185C247.681 211.477 258.724 188.155 270.294 178.617C281.578 169.316 293.245 187.573 305.106 190.459Z" fill="url(#paint3_linear_1884_186)"/>
</g>
<g filter="url(#filter4_f_1884_186)">
<circle cx="356.4" cy="482.224" r="82.4598" fill="white"/>
</g>
<defs>
<filter id="filter0_f_1884_186" x="151.636" y="1.63637" width="464.727" height="646.727" filterUnits="userSpaceOnUse" color-interpolation-filters="sRGB">
<feFlood flood-opacity="0" result="BackgroundImageFix"/>
<feBlend mode="normal" in="SourceGraphic" in2="BackgroundImageFix" result="shape"/>
<feGaussianBlur stdDeviation="80.6818" result="effect1_foregroundBlur_1884_186"/>
</filter>
<filter id="filter1_f_1884_186" x="151.636" y="179.636" width="436.727" height="676.727" filterUnits="userSpaceOnUse" color-interpolation-filters="sRGB">
<feFlood flood-opacity="0" result="BackgroundImageFix"/>
<feBlend mode="normal" in="SourceGraphic" in2="BackgroundImageFix" result="shape"/>
<feGaussianBlur stdDeviation="80.6818" result="effect1_foregroundBlur_1884_186"/>
</filter>
<filter id="filter2_f_1884_186" x="66.1136" y="191.114" width="478.773" height="651.773" filterUnits="userSpaceOnUse" color-interpolation-filters="sRGB">
<feFlood flood-opacity="0" result="BackgroundImageFix"/>
<feBlend mode="normal" in="SourceGraphic" in2="BackgroundImageFix" result="shape"/>
<feGaussianBlur stdDeviation="87.9432" result="effect1_foregroundBlur_1884_186"/>
</filter>
<filter id="filter3_f_1884_186" x="66.1136" y="0.113647" width="478.773" height="651.773" filterUnits="userSpaceOnUse" color-interpolation-filters="sRGB">
<feFlood flood-opacity="0" result="BackgroundImageFix"/>
<feBlend mode="normal" in="SourceGraphic" in2="BackgroundImageFix" result="shape"/>
<feGaussianBlur stdDeviation="87.9432" result="effect1_foregroundBlur_1884_186"/>
</filter>
<filter id="filter4_f_1884_186" x="0.593048" y="126.417" width="711.615" height="711.614" filterUnits="userSpaceOnUse" color-interpolation-filters="sRGB">
<feFlood flood-opacity="0" result="BackgroundImageFix"/>
<feBlend mode="normal" in="SourceGraphic" in2="BackgroundImageFix" result="shape"/>
<feGaussianBlur stdDeviation="136.674" result="effect1_foregroundBlur_1884_186"/>
</filter>
<linearGradient id="paint0_linear_1884_186" x1="449.345" y1="173.8" x2="212.455" y2="283.076" gradientUnits="userSpaceOnUse">
<stop stop-color="white"/>
<stop offset="1" stop-color="#4852D9"/>
</linearGradient>
<linearGradient id="paint1_linear_1884_186" x1="313" y1="695" x2="459.267" y2="675.507" gradientUnits="userSpaceOnUse">
<stop stop-color="#181818"/>
<stop offset="0.0666667" stop-color="#6CACE4"/>
<stop offset="0.133333" stop-color="#6DADE4"/>
<stop offset="0.2" stop-color="#6FAEE5"/>
<stop offset="0.266667" stop-color="#72B0E5"/>
<stop offset="0.333333" stop-color="#75B3E6"/>
<stop offset="0.4" stop-color="#79B6E7"/>
<stop offset="0.466667" stop-color="#7DB9E8"/>
<stop offset="0.533333" stop-color="#82BDEA"/>
<stop offset="0.6" stop-color="#86C0EB"/>
<stop offset="0.666667" stop-color="#8AC3EC"/>
<stop offset="0.733333" stop-color="#8DC6ED"/>
<stop offset="0.8" stop-color="#90C8ED"/>
<stop offset="0.866667" stop-color="#92C9EE"/>
<stop offset="0.933333" stop-color="#93CAEE"/>
<stop offset="1" stop-color="#343536"/>
</linearGradient>
<linearGradient id="paint2_linear_1884_186" x1="291.951" y1="807.218" x2="490.552" y2="739.289" gradientUnits="userSpaceOnUse">
<stop stop-color="#014D78"/>
<stop offset="0.266667" stop-color="#806BF4"/>
<stop offset="0.333333" stop-color="#7575F2"/>
<stop offset="0.4" stop-color="#6882F0"/>
<stop offset="0.466667" stop-color="#5990EE"/>
<stop offset="0.533333" stop-color="#4A9FEB"/>
<stop offset="0.6" stop-color="#3BADE9"/>
<stop offset="0.666667" stop-color="#2EBAE7"/>
<stop offset="0.733333" stop-color="#23C4E5"/>
<stop offset="0.8" stop-color="#1BCDE4"/>
<stop offset="0.866667" stop-color="#15D2E3"/>
<stop offset="0.933333" stop-color="#11D6E2"/>
<stop offset="1" stop-color="#10D7E2"/>
</linearGradient>
<linearGradient id="paint3_linear_1884_186" x1="291.951" y1="616.218" x2="490.552" y2="548.289" gradientUnits="userSpaceOnUse">
<stop stop-color="white"/>
<stop offset="0.151042" stop-color="white"/>
<stop offset="0.265625" stop-color="white"/>
<stop offset="0.4" stop-color="white"/>
<stop offset="0.466667" stop-color="#5990EE"/>
<stop offset="0.533333" stop-color="#4A9FEB"/>
<stop offset="0.6" stop-color="#3BADE9"/>
<stop offset="0.666667" stop-color="#2EBAE7"/>
<stop offset="0.733333" stop-color="#23C4E5"/>
<stop offset="0.8" stop-color="#1BCDE4"/>
<stop offset="0.866667" stop-color="#15D2E3"/>
<stop offset="0.933333" stop-color="#11D6E2"/>
<stop offset="1" stop-color="#10D7E2"/>
</linearGradient>
</defs>
</svg>
