<svg width="1046" height="930" viewBox="0 0 1046 930" fill="none" xmlns="http://www.w3.org/2000/svg">
<g opacity="0.5" filter="url(#filter0_f_1893_186)">
<path fill-rule="evenodd" clip-rule="evenodd" d="M292.045 242.707C310.969 228.298 329.08 172.112 346.801 192.346C365.318 213.488 354.012 279.846 361.391 321.886C366.023 348.273 381.74 364.759 382.01 392.939C382.296 422.775 361.531 441.685 362.824 471.399C364.578 511.698 390.294 536.013 389.997 576.482C389.743 611.312 372.33 633.954 361.445 659.859C348.807 689.939 339.354 744.794 320.498 741.889C298.596 738.515 289.476 677.532 273.094 646.246C263.759 628.42 253.634 613.945 244.241 596.26C235.53 579.857 227.713 562.567 219.423 545.191C208.832 522.99 185.499 510.017 188.219 478.83C191.474 441.507 229.473 450.845 230.951 413.009C233.05 359.245 188.936 322.669 196.331 271.089C201.868 232.467 233.564 269.87 252.267 264.324C265.967 260.261 279.014 252.629 292.045 242.707Z" fill="url(#paint0_linear_1893_186)"/>
</g>
<g opacity="0.5" filter="url(#filter1_f_1893_186)">
<path fill-rule="evenodd" clip-rule="evenodd" d="M422.185 217.133C436.985 219.095 453.469 209.748 465.98 220.344C478.481 230.932 480.158 253.664 486.338 271.468C491.937 287.598 497.313 303.071 500.659 320.251C504.92 342.123 851.379 302.524 840.761 320.251C829.455 339.127 472.177 386.595 455.347 395.902C441.617 403.494 436.417 428.043 422.185 433.813C406.738 440.076 389.711 436.457 374.689 428.605C358.453 420.119 338.288 409.744 333.68 387.553C328.818 364.139 351.593 344.512 352.19 320.251C352.756 297.247 332.79 277.782 336.933 255.423C341.029 233.317 356.635 215.359 372.987 208.015C388.933 200.853 405.422 214.911 422.185 217.133Z" fill="url(#paint1_linear_1893_186)"/>
</g>
<defs>
<filter id="filter0_f_1893_186" x="0.559723" y="0.559723" width="576.881" height="928.881" filterUnits="userSpaceOnUse" color-interpolation-filters="sRGB">
<feFlood flood-opacity="0" result="BackgroundImageFix"/>
<feBlend mode="normal" in="SourceGraphic" in2="BackgroundImageFix" result="shape"/>
<feGaussianBlur stdDeviation="93.7201" result="effect1_foregroundBlur_1893_186"/>
</filter>
<filter id="filter1_f_1893_186" x="128.69" y="1.69009" width="916.62" height="639.62" filterUnits="userSpaceOnUse" color-interpolation-filters="sRGB">
<feFlood flood-opacity="0" result="BackgroundImageFix"/>
<feBlend mode="normal" in="SourceGraphic" in2="BackgroundImageFix" result="shape"/>
<feGaussianBlur stdDeviation="102.155" result="effect1_foregroundBlur_1893_186"/>
</filter>
<linearGradient id="paint0_linear_1893_186" x1="188" y1="742" x2="445.905" y2="703.083" gradientUnits="userSpaceOnUse">
<stop stop-color="white"/>
<stop offset="0.330891" stop-color="#ABC4D2"/>
<stop offset="0.645881" stop-color="#5B8CA8"/>
<stop offset="1" stop-color="#014D78"/>
</linearGradient>
<linearGradient id="paint1_linear_1893_186" x1="1105.93" y1="467.998" x2="1330.81" y2="326.822" gradientUnits="userSpaceOnUse">
<stop stop-color="#FAFDFF"/>
<stop offset="1" stop-color="#C0C0C0"/>
</linearGradient>
</defs>
</svg>
