<svg width="24" height="24" viewBox="0 0 24 24" fill="none" xmlns="http://www.w3.org/2000/svg">
<g clip-path="url(#clip0_2111_7809)">
<path d="M8.23047 15.7715L15.7729 8.229" stroke="#2EAADA" stroke-width="1.5" stroke-linecap="round" stroke-linejoin="round"/>
<path d="M5.93117 11.5875C6.22406 11.2946 6.22406 10.8197 5.93117 10.5268C5.63828 10.2339 5.1634 10.2339 4.87051 10.5268L5.93117 11.5875ZM13.4736 19.1299C13.7665 18.837 13.7665 18.3622 13.4736 18.0693C13.1807 17.7764 12.7059 17.7764 12.413 18.0693L13.4736 19.1299ZM4.87051 10.5268L2.98489 12.4124L4.04555 13.4731L5.93117 11.5875L4.87051 10.5268ZM11.588 21.0155L13.4736 19.1299L12.413 18.0693L10.5274 19.9549L11.588 21.0155ZM2.98489 21.0155C5.36058 23.3912 9.21233 23.3912 11.588 21.0155L10.5274 19.9549C8.73746 21.7448 5.83545 21.7448 4.04555 19.9549L2.98489 21.0155ZM2.98489 12.4124C0.609203 14.7881 0.609203 18.6399 2.98489 21.0155L4.04555 19.9549C2.25565 18.165 2.25565 15.263 4.04555 13.4731L2.98489 12.4124Z" fill="#2EAADA"/>
<path d="M10.5283 4.87002C10.2354 5.16291 10.2354 5.63779 10.5283 5.93068C10.8212 6.22357 11.296 6.22357 11.5889 5.93068L10.5283 4.87002ZM18.0707 12.4125C17.7778 12.7054 17.7778 13.1803 18.0707 13.4732C18.3636 13.766 18.8385 13.766 19.1314 13.4732L18.0707 12.4125ZM11.5889 5.93068L13.4745 4.04506L12.4139 2.9844L10.5283 4.87002L11.5889 5.93068ZM19.9564 10.5269L18.0707 12.4125L19.1314 13.4732L21.017 11.5875L19.9564 10.5269ZM19.9564 4.04506C21.7463 5.83497 21.7463 8.73697 19.9564 10.5269L21.017 11.5875C23.3927 9.21185 23.3927 5.36009 21.017 2.9844L19.9564 4.04506ZM13.4745 4.04506C15.2644 2.25516 18.1665 2.25516 19.9564 4.04506L21.017 2.9844C18.6413 0.608714 14.7896 0.608714 12.4139 2.9844L13.4745 4.04506Z" fill="#2EAADA"/>
</g>
<defs>
<clipPath id="clip0_2111_7809">
<rect width="24" height="24" fill="white"/>
</clipPath>
</defs>
</svg>
