<svg width="30" height="30" viewBox="0 0 30 30" fill="none" xmlns="http://www.w3.org/2000/svg">
<path d="M0 10C0 7.79086 1.79086 6 4 6H22V14H0V10Z" fill="url(#paint0_linear_2057_736)"/>
<path d="M18 18C22.9706 18 27 13.9706 27 9C27 4.02944 22.9706 0 18 0C13.0294 0 9 4.02944 9 9C9 13.9706 13.0294 18 18 18Z" fill="#C6C100"/>
<path d="M19.5 18C24.4706 18 28.5 13.9706 28.5 9C28.5 4.02944 24.4706 0 19.5 0C14.5294 0 10.5 4.02944 10.5 9C10.5 13.9706 14.5294 18 19.5 18Z" fill="#FDFFAB"/>
<g style="mix-blend-mode:multiply">
<g style="mix-blend-mode:multiply">
<path d="M9.44727 12C10.0712 13.7986 11.2256 15.3556 12.7519 16.4569C14.2781 17.5582 16.1012 18.1497 17.9702 18.15C18.2239 18.15 18.4744 18.15 18.7217 18.1176C18.969 18.0853 19.2227 18.15 19.4763 18.15C21.3454 18.1497 23.1684 17.5582 24.6946 16.4569C26.2209 15.3556 27.3754 13.7986 27.9993 12H9.44727Z" fill="#C7C03D"/>
</g>
</g>
<path fill-rule="evenodd" clip-rule="evenodd" d="M24.853 5.84017C25.1814 5.95002 25.3585 6.30529 25.2487 6.63368L24.3907 9.19868C24.2808 9.52708 23.9256 9.70425 23.5972 9.5944C23.2688 9.48455 23.0916 9.12928 23.2015 8.80088L24.0595 6.23588C24.1693 5.90749 24.5246 5.73032 24.853 5.84017Z" fill="#383834"/>
<path fill-rule="evenodd" clip-rule="evenodd" d="M20.3556 5.44701C19.5549 5.25836 18.7139 5.34564 17.969 5.69472C17.2241 6.04379 16.619 6.63419 16.2516 7.37022C15.8842 8.10626 15.7762 8.94479 15.945 9.74991C16.1138 10.555 16.5495 11.2795 17.1816 11.806C17.8137 12.3325 18.6051 12.6301 19.4274 12.6506C20.2498 12.6711 21.055 12.4132 21.7125 11.9188C21.9892 11.7107 22.3823 11.7664 22.5904 12.0431C22.7985 12.3199 22.7429 12.713 22.4661 12.9211C21.5828 13.5853 20.501 13.9317 19.3962 13.9042C18.2914 13.8767 17.2282 13.4769 16.3791 12.7696C15.5299 12.0622 14.9445 11.0889 14.7177 10.0072C14.4909 8.92558 14.636 7.79904 15.1296 6.81021C15.6231 5.82137 16.4362 5.02818 17.4369 4.55922C18.4376 4.09025 19.5674 3.97298 20.6431 4.22643C21.7188 4.47987 22.6774 5.08917 23.3636 5.95556C24.0497 6.82196 24.4231 7.89467 24.4233 8.99984C24.4233 9.34613 24.1427 9.62689 23.7964 9.62695C23.4501 9.62701 23.1693 9.34635 23.1693 9.00006C23.1691 8.17744 22.8912 7.37897 22.3805 6.73408C21.8698 6.08918 21.1563 5.63566 20.3556 5.44701Z" fill="#383834"/>
<path fill-rule="evenodd" clip-rule="evenodd" d="M19.5245 6.66309C19.8708 6.66309 20.1515 6.94381 20.1515 7.29009V8.74103L20.8206 9.41252C21.065 9.65781 21.0643 10.0548 20.8191 10.2992C20.5738 10.5436 20.1768 10.5429 19.9324 10.2976L18.8975 9.25916V7.29009C18.8975 6.94381 19.1782 6.66309 19.5245 6.66309Z" fill="#383834"/>
<path d="M0 10V27C0 28.6569 1.34326 30 3 30H30V14H4C1.79077 14 0 12.2091 0 10Z" fill="url(#paint1_linear_2057_736)"/>
<path d="M23.5 24C24.8807 24 26 22.8807 26 21.5C26 20.1193 24.8807 19 23.5 19C22.1193 19 21 20.1193 21 21.5C21 22.8807 22.1193 24 23.5 24Z" fill="#383834"/>
<defs>
<linearGradient id="paint0_linear_2057_736" x1="11" y1="6" x2="11" y2="14" gradientUnits="userSpaceOnUse">
<stop stop-color="#5C73F3"/>
<stop offset="1" stop-color="#3B3B3B"/>
</linearGradient>
<linearGradient id="paint1_linear_2057_736" x1="-4.19095e-09" y1="21" x2="30" y2="21" gradientUnits="userSpaceOnUse">
<stop stop-color="#5C73F3"/>
<stop offset="1" stop-color="#FFE4F9"/>
</linearGradient>
</defs>
</svg>
