<svg width="98" height="20" viewBox="0 0 98 20" fill="none" xmlns="http://www.w3.org/2000/svg">
<path d="M0 2.5C0 1.11929 1.11929 0 2.5 0H27.5C28.8807 0 30 1.11929 30 2.5V17.5C30 18.8807 28.8807 20 27.5 20H2.5C1.11929 20 0 18.8807 0 17.5V2.5Z" fill="#3362AB"/>
<path d="M25.8191 6.27148H24.2474C23.7723 6.27148 23.4068 6.41768 23.1875 6.89283L20.1904 13.7276H22.3103C22.3103 13.7276 22.6758 12.8139 22.7489 12.5946C22.9682 12.5946 25.0515 12.5946 25.3439 12.5946C25.417 12.8504 25.5998 13.6911 25.5998 13.6911H27.5004L25.8191 6.27148ZM23.3337 11.0595C23.5165 10.6209 24.1378 8.97616 24.1378 8.97616C24.1378 9.01271 24.3205 8.53757 24.3936 8.28172L24.5398 8.93961C24.5398 8.93961 24.9419 10.7305 25.015 11.096H23.3337V11.0595Z" fill="white"/>
<path d="M20.3358 11.2791C20.3358 12.8142 18.9469 13.8375 16.7905 13.8375C15.8768 13.8375 14.9996 13.6548 14.5244 13.4355L14.8168 11.7542L15.0727 11.8639C15.7306 12.1563 16.1691 12.2659 16.9732 12.2659C17.558 12.2659 18.1794 12.0466 18.1794 11.5349C18.1794 11.206 17.9235 10.9867 17.1194 10.6212C16.3519 10.2557 15.3285 9.67088 15.3285 8.61094C15.3285 7.14895 16.7539 6.16211 18.7642 6.16211C19.5317 6.16211 20.1896 6.30831 20.5917 6.49106L20.2993 8.09924L20.1531 7.95305C19.7876 7.80685 19.3124 7.66065 18.618 7.66065C17.8504 7.6972 17.4849 8.02614 17.4849 8.31854C17.4849 8.64749 17.9235 8.90334 18.618 9.23228C19.7876 9.78053 20.3358 10.4019 20.3358 11.2791Z" fill="white"/>
<path d="M2.5 6.34444L2.53655 6.19824H5.67982C6.11842 6.19824 6.44737 6.34444 6.55702 6.81959L7.25146 10.1091C6.55702 8.35467 4.94883 6.92924 2.5 6.34444Z" fill="#F9B50B"/>
<path d="M11.6735 6.2719L8.49368 13.6915H6.33725L4.50977 7.47804C5.82556 8.31869 6.92205 9.63447 7.32409 10.5482L7.54339 11.3158L9.51708 6.23535H11.6735V6.2719Z" fill="white"/>
<path d="M12.5146 6.23535H14.5248L13.2456 13.6915H11.2354L12.5146 6.23535Z" fill="white"/>
<path d="M34 2.5C34 1.11929 35.1193 0 36.5 0H61.5C62.8807 0 64 1.11929 64 2.5V17.5C64 18.8807 62.8807 20 61.5 20H36.5C35.1193 20 34 18.8807 34 17.5V2.5Z" fill="#311E02"/>
<path d="M52.1305 4.07936L45.6748 4.10156L45.8704 15.9202L52.3261 15.898L52.1305 4.07936Z" fill="#FF5F00"/>
<path d="M46.0995 10.0346C46.0596 7.6308 47.1364 5.49491 48.8231 4.10947C47.5499 3.11044 45.9539 2.50969 44.2237 2.51562C40.1248 2.52966 36.8645 5.90636 36.9336 10.066C37.0028 14.2257 40.3749 17.5796 44.4738 17.5656C46.204 17.5597 47.7799 16.9481 49.0197 15.9404C47.2875 14.5876 46.1395 12.4384 46.0995 10.0346Z" fill="#EB001B"/>
<path d="M61.0669 9.93413C61.136 14.0938 57.8757 17.4705 53.7768 17.4845C52.0467 17.4904 50.4506 16.8897 49.1775 15.8907C50.8847 14.5052 51.941 12.3693 51.901 9.96552C51.8611 7.56171 50.7134 5.43344 48.9808 4.05971C50.2206 3.05207 51.7966 2.44046 53.5267 2.43453C57.6256 2.4205 60.9981 5.79539 61.0669 9.93413Z" fill="#F79E1B"/>
<path d="M68 2.5C68 1.11929 69.1193 0 70.5 0H95.5C96.8807 0 98 1.11929 98 2.5V17.5C98 18.8807 96.8807 20 95.5 20H70.5C69.1193 20 68 18.8807 68 17.5V2.5Z" fill="#2557D6"/>
<path d="M90.1392 6.16922L89.5587 7.44884H90.7228L90.1392 6.16922ZM83.441 6.96218C83.5504 6.91025 83.6148 6.79729 83.6148 6.65702C83.6148 6.51956 83.5471 6.42 83.4378 6.37322C83.3381 6.32136 83.1848 6.31538 83.0378 6.31538H81.9993V7.02835H83.0239C83.1879 7.02839 83.3251 7.0262 83.441 6.96218ZM70.1342 6.16922L69.5603 7.44884H70.7115L70.1342 6.16922ZM96.854 14.3669H95.2253V13.6784H96.8474C97.0082 13.6784 97.1208 13.6592 97.1886 13.5988C97.2528 13.545 97.289 13.469 97.2883 13.3895C97.2883 13.2959 97.2475 13.2217 97.1852 13.1772C97.1242 13.1282 97.035 13.1059 96.8881 13.1059C96.0962 13.0814 95.1083 13.1281 95.1083 12.1121C95.1083 11.6465 95.4334 11.1563 96.3184 11.1563H97.9983V10.5175H96.4375C95.9665 10.5175 95.6243 10.6202 95.382 10.7798V10.5175H93.0734C92.7043 10.5175 92.271 10.6008 92.066 10.7798V10.5175H87.9432V10.7798C87.6152 10.5644 87.0615 10.5175 86.8061 10.5175H84.0867V10.7798C83.8272 10.5511 83.2499 10.5175 82.8982 10.5175H79.8548L79.1584 11.2032L78.5062 10.5175H73.9599V14.9978H78.4204L79.1379 14.3012L79.8139 14.9978L82.5633 15V13.9461H82.8337C83.1985 13.9514 83.6287 13.9379 84.0084 13.7886V14.9977H86.2762V13.8299H86.3856C86.5252 13.8299 86.539 13.8352 86.539 13.9621V14.9974H93.4284C93.8658 14.9974 94.323 14.8957 94.5762 14.7106V14.9974H96.7615C97.2162 14.9974 97.6603 14.9394 97.9982 14.791V13.9564C97.7934 14.2289 97.3941 14.367 96.8539 14.367L96.854 14.3669ZM82.8698 13.309H81.8175V14.3859H80.1783L79.1398 13.3231L78.0606 14.3859H74.72V11.1753H78.112L79.1496 12.2277L80.2223 11.1753H82.9171C83.5864 11.1753 84.3384 11.3439 84.3384 12.233C84.3384 13.1249 83.607 13.309 82.8698 13.309ZM87.9299 13.1634C88.0491 13.3201 88.0662 13.4664 88.0697 13.7494V14.3859H87.2229V13.9843C87.2229 13.7911 87.2434 13.5051 87.0866 13.3558C86.9635 13.2408 86.7756 13.2134 86.4678 13.2134H85.5666V14.3859H84.7192V11.1753H86.6662C87.0933 11.1753 87.4042 11.1926 87.681 11.3268C87.9471 11.4731 88.1146 11.6735 88.1146 12.0398C88.1146 12.5522 87.7389 12.8136 87.5169 12.8939C87.7045 12.9569 87.8579 13.0699 87.9299 13.1634ZM91.4137 11.8393H89.4388V12.4229H91.3654V13.078H89.4388V13.7168L91.4137 13.7197V14.3859H88.5989V11.1753H91.4137V11.8393ZM93.5808 14.3858H91.9382V13.6974H93.5742C93.7343 13.6974 93.8477 13.6781 93.9188 13.6178C93.9767 13.5682 94.0184 13.496 94.0184 13.4086C94.0184 13.3149 93.9733 13.2407 93.9155 13.1961C93.8509 13.1472 93.7619 13.125 93.6151 13.125C92.8264 13.1004 91.8387 13.1471 91.8387 12.1312C91.8387 11.6655 92.1604 11.1753 93.0445 11.1753H94.7353V11.8586H93.1882C93.0348 11.8586 92.9351 11.8639 92.8503 11.9167C92.7578 11.9687 92.7236 12.0458 92.7236 12.1476C92.7236 12.2687 92.8021 12.3511 92.9081 12.3867C92.9971 12.4149 93.0926 12.4231 93.2363 12.4231L93.6904 12.4344C94.148 12.4444 94.4624 12.5166 94.6535 12.6925C94.8175 12.8471 94.9057 13.0423 94.9057 13.3727C94.9057 14.0634 94.4313 14.3858 93.5808 14.3858ZM87.0399 11.8911C86.938 11.836 86.7876 11.8331 86.6375 11.8331H85.599V12.5541H86.6236C86.7877 12.5541 86.9272 12.5488 87.0399 12.4879C87.1492 12.4278 87.2146 12.3171 87.2146 12.1798C87.2146 12.0425 87.1492 11.9431 87.0399 11.8911ZM96.4628 11.833C96.3094 11.833 96.2073 11.8383 96.1215 11.891C96.0325 11.9431 95.9983 12.0202 95.9983 12.122C95.9983 12.243 96.0735 12.3255 96.1827 12.3612C96.2718 12.3893 96.3672 12.3976 96.5077 12.3976L96.9649 12.4086C97.426 12.419 97.734 12.4912 97.9218 12.6672C97.956 12.6916 97.9765 12.719 98 12.7466V11.8331H96.4628L96.4628 11.833ZM82.899 11.833H81.7994V12.6507H82.8892C83.2133 12.6507 83.4148 12.5044 83.4149 12.2267C83.4148 11.9459 83.2035 11.833 82.899 11.833ZM75.56 11.833V12.4167H77.4114V13.0718H75.56V13.7106H77.6335L78.5968 12.7687L77.6744 11.833H75.56ZM80.9744 14.0782V11.5042L79.6796 12.7705L80.9744 14.0782ZM75.6308 8.92341V9.47661H82.6767L82.6734 8.3063H82.8098C82.9053 8.30933 82.9331 8.31733 82.9331 8.46074V9.47665H86.5773V9.20418C86.8712 9.34748 87.3283 9.47665 87.9299 9.47665H89.463L89.7912 8.76371H90.5186L90.8395 9.47665H93.7938V8.79942L94.2411 9.47661H96.6086V5H94.2657V5.5287L93.9376 5H91.5334V5.5287L91.2322 5H87.9846C87.441 5 86.9633 5.06902 86.5773 5.26141V5H84.3361V5.26141C84.0905 5.06311 83.7558 5 83.3837 5H75.1962L74.6469 6.15629L74.0827 5H71.504V5.5287L71.2206 5H69.0213L68 7.12853V8.83112L69.5102 5.62124H70.7633L72.1976 8.66032V5.62124H73.5741L74.6778 7.79874L75.6917 5.62124H77.0959V8.83112H76.2314L76.2283 6.3172L75.0053 8.83112H74.2648L73.0388 6.31497V8.83112H71.3233L70.9993 8.11515H69.2433L68.9159 8.83112H68V9.47687H69.441L69.7659 8.76389H70.4934L70.8174 9.47687H73.6526V8.93174L73.9057 9.47913H75.3775L75.6306 8.92352L75.6308 8.92341ZM86.7337 5.99539C87.0062 5.7392 87.4333 5.62106 88.0144 5.62106H88.8309V6.30884H88.0316C87.7239 6.30884 87.55 6.35047 87.3827 6.49903C87.2388 6.63416 87.1402 6.88965 87.1402 7.22607C87.1402 7.56998 87.2154 7.81792 87.372 7.97988C87.5019 8.1069 87.7379 8.14543 87.9599 8.14543H88.3388L89.5273 5.62117H90.7909L92.2188 8.65722V5.6212H93.5029L94.9854 7.8567V5.6212H95.8492V8.83098H94.6541L93.0555 6.42183V8.83098H91.338L91.0098 8.115H89.2578L88.9395 8.83098H87.9525C87.5426 8.83098 87.0236 8.74852 86.7297 8.47593C86.4332 8.20342 86.2792 7.83424 86.2792 7.25058C86.279 6.77447 86.3711 6.3393 86.7337 5.99539ZM84.999 5.62109H85.8595V8.83098H84.999V5.62109ZM81.1193 5.62109H83.0591C83.49 5.62109 83.8077 5.6315 84.0804 5.77484C84.3471 5.91822 84.5071 6.12755 84.5071 6.48552C84.5071 6.99735 84.1316 7.26172 83.9129 7.34115C84.0974 7.40506 84.2551 7.51794 84.3302 7.61143C84.4493 7.7711 84.4698 7.91371 84.4698 8.20035V8.83094H83.6192L83.616 8.42615C83.616 8.23296 83.6363 7.95519 83.4829 7.80086C83.3597 7.68801 83.1718 7.66344 82.8681 7.66344H81.9628V8.83098H81.1194L81.1193 5.62109ZM77.7195 5.62109H80.5368V6.28952H78.563V6.8681H80.4895V7.52608H78.563V8.16712H80.5368V8.83094H77.7195V5.62109Z" fill="white"/>
</svg>
