<svg width="40" height="25" viewBox="0 0 40 25" fill="none" xmlns="http://www.w3.org/2000/svg">
<path d="M24.9385 2.98056L14.7422 3.01562L15.0512 21.6825L25.2475 21.6474L24.9385 2.98056Z" fill="#FF5F00"/>
<path d="M15.4167 12.3865C15.3536 8.58981 17.0544 5.21629 19.7184 3.02807C17.7075 1.45016 15.1866 0.501311 12.4539 0.51067C5.97992 0.532843 0.830519 5.86615 0.939698 12.4361C1.04888 19.006 6.37494 24.3034 12.8489 24.2813C15.5816 24.2719 18.0707 23.3059 20.0289 21.7144C17.293 19.5777 15.4798 16.1832 15.4167 12.3865Z" fill="#EB001B"/>
<path d="M39.0533 12.2267C39.1625 18.7966 34.0131 24.1299 27.5391 24.1521C24.8064 24.1615 22.2855 23.2126 20.2747 21.6347C22.9712 19.4464 24.6394 16.073 24.5763 12.2763C24.5132 8.47959 22.7005 5.11811 19.9641 2.94839C21.9223 1.35688 24.4114 0.390874 27.1441 0.381515C33.618 0.359342 38.9447 5.68979 39.0533 12.2267Z" fill="#F79E1B"/>
</svg>
