<svg width="44" height="18" viewBox="0 0 44 18" fill="none" xmlns="http://www.w3.org/2000/svg">
<path d="M36.5315 17.9893C38.5594 17.9893 39.5139 17.2183 40.3476 14.8811L44 4.67336H41.8853L39.436 12.5707H39.3931L36.9438 4.68406H34.7692L38.2928 14.3998L38.1041 14.9908C37.9708 15.8367 37.2086 16.4401 36.3508 16.3777C36.1871 16.3777 35.8695 16.3608 35.7407 16.3438V17.9483C36.0028 17.9839 36.2676 18.0009 36.5315 18V17.9893ZM29.4843 12.8774C28.375 12.8774 27.671 12.3426 27.671 11.5332C27.671 10.6944 28.35 10.206 29.648 10.1284L31.9595 9.98315V10.7372C31.9085 11.9798 30.8556 12.9469 29.6086 12.8961C29.5665 12.8943 29.5254 12.8907 29.4843 12.8872V12.8774ZM28.9261 14.4613C30.1847 14.4952 31.3619 13.8418 31.9943 12.757H32.0373V14.3615H33.9623V7.71644C33.9623 5.78933 32.4157 4.54768 30.0344 4.54768C27.8258 4.54768 26.1923 5.80627 26.1324 7.53638H28.0065C28.2301 6.65662 29.0692 6.07635 29.9745 6.1744C31.2465 6.1744 31.9595 6.76536 31.9595 7.85281V8.58907L29.3653 8.74327C26.95 8.88856 25.644 9.87351 25.644 11.5867C25.6422 13.3239 26.9912 14.4711 28.9252 14.4711L28.9261 14.4613ZM17.7702 2.75517H20.1676C21.9728 2.75517 23.0042 3.71426 23.0042 5.40159C23.0042 7.08892 21.9728 8.05604 20.1595 8.05604H17.7702V2.75517ZM15.6904 1.00812V14.3588H17.7702V9.80755H20.6497C22.9952 9.93323 24.9981 8.14072 25.1243 5.80359C25.1314 5.67078 25.1323 5.53886 25.1269 5.40605C25.2379 3.09478 23.4479 1.13202 21.1283 1.0206C20.9915 1.01436 20.8555 1.01525 20.7186 1.02149L15.6904 1.00812ZM8.78721 3.49945C7.59211 3.43081 6.56964 4.17599 6.0025 4.17599C5.43536 4.17599 4.55871 3.53421 3.61318 3.55204C2.36082 3.58413 1.21938 4.27493 0.613776 5.36772C-0.675261 7.57739 0.278324 10.8486 1.52442 12.6465C2.1345 13.5379 2.86624 14.5139 3.82787 14.4791C4.73852 14.4453 5.09991 13.8882 6.2002 13.8882C7.30048 13.8882 7.62699 14.4791 8.58952 14.4613C9.58604 14.4444 10.214 13.5699 10.8259 12.6786C11.257 12.0475 11.5925 11.3567 11.8224 10.6285C10.6479 10.1168 9.88661 8.96433 9.88035 7.68702C9.89824 6.56035 10.4904 5.52104 11.453 4.93007C10.8393 4.06189 9.8544 3.52886 8.789 3.49143L8.78721 3.49945ZM8.04116 2.32019C7.51786 2.97712 6.71724 3.35416 5.87548 3.33901C5.8218 2.52074 6.1009 1.71585 6.64926 1.10439C7.19493 0.473308 7.96424 0.0775476 8.79616 0C8.8552 0.841437 8.58415 1.67218 8.03938 2.31752" fill="white"/>
</svg>
