<svg width="42" height="12" viewBox="0 0 42 12" fill="none" xmlns="http://www.w3.org/2000/svg">
<path d="M7.10915 0.72101C6.58274 0.359119 5.89581 0.177734 5.04836 0.177734H1.76751C1.50772 0.177734 1.36419 0.307661 1.33693 0.567265L0.00418346 8.93326C-0.00966797 9.01543 0.0108898 9.09057 0.0656687 9.15889C0.120134 9.22733 0.188639 9.26137 0.270682 9.26137H1.82906C2.10239 9.26137 2.25263 9.13175 2.28021 8.87183L2.64924 6.61638C2.66272 6.50707 2.71079 6.4182 2.79283 6.34975C2.87481 6.28144 2.97735 6.23675 3.10039 6.21632C3.22342 6.19601 3.33943 6.18573 3.44899 6.18573C3.55824 6.18573 3.68804 6.19269 3.83865 6.20629C3.98888 6.21989 4.08465 6.22659 4.12571 6.22659C5.30126 6.22659 6.22398 5.89535 6.89392 5.23211C7.56356 4.56925 7.89875 3.65005 7.89875 2.47412C7.89875 1.66761 7.63532 1.08328 7.10915 0.720821V0.72101ZM5.41759 3.23306C5.34902 3.71159 5.17152 4.02585 4.88446 4.17627C4.59734 4.32689 4.18725 4.40185 3.65419 4.40185L2.97748 4.42228L3.32615 2.22818C3.35335 2.07794 3.44216 2.00273 3.59264 2.00273H3.98236C4.5289 2.00273 4.92558 2.08152 5.17165 2.23846C5.41759 2.39578 5.49963 2.72739 5.41759 3.23306Z" fill="#FFFFFF"/>
<path d="M41.731 0.177734H40.2138C40.063 0.177734 39.9743 0.252946 39.9472 0.403431L38.6143 8.93364L38.5938 8.97463C38.5938 9.04332 38.6211 9.10794 38.6759 9.16949C38.7303 9.23091 38.799 9.26168 38.8809 9.26168H40.2344C40.4937 9.26168 40.6373 9.13207 40.6651 8.87215L41.9978 0.485474V0.465104C41.9977 0.273629 41.9086 0.177986 41.731 0.177986V0.177734Z" fill="#FFFFFF"/>
<path d="M23.3974 3.47846C23.3974 3.41027 23.3699 3.34521 23.3156 3.28385C23.2607 3.22237 23.1992 3.19141 23.131 3.19141H21.5521C21.4014 3.19141 21.2784 3.2601 21.1829 3.39642L19.0094 6.59534L18.1072 3.51958C18.0385 3.30103 17.8883 3.19141 17.6561 3.19141H16.1179C16.0494 3.19141 15.9879 3.22224 15.9336 3.28385C15.8788 3.34521 15.8516 3.4104 15.8516 3.47846C15.8516 3.50598 15.9849 3.90911 16.2514 4.6883C16.5179 5.46773 16.8049 6.30847 17.1126 7.21075C17.4202 8.11285 17.5807 8.59157 17.5944 8.64578C16.4734 10.1771 15.9131 10.9973 15.9131 11.1064C15.9131 11.2843 16.0018 11.3731 16.1797 11.3731H17.7586C17.9089 11.3731 18.0318 11.3049 18.1277 11.1681L23.3566 3.62193C23.3838 3.59485 23.3974 3.54722 23.3974 3.4784V3.47846Z" fill="#FFFFFF"/>
<path d="M38.1054 3.19236H36.547C36.3554 3.19236 36.2396 3.41799 36.1986 3.8692C35.8427 3.32253 35.1938 3.04883 34.2504 3.04883C33.2662 3.04883 32.4288 3.41799 31.7386 4.15619C31.0482 4.89439 30.7031 5.76271 30.7031 6.76052C30.7031 7.56722 30.9389 8.20966 31.4104 8.68794C31.8821 9.16672 32.5142 9.40565 33.3074 9.40565C33.7037 9.40565 34.107 9.32348 34.5171 9.15958C34.9271 8.99555 35.2481 8.77694 35.4809 8.50342C35.4809 8.51715 35.467 8.57844 35.4399 8.68775C35.4123 8.79731 35.3988 8.8796 35.3988 8.93382C35.3988 9.15281 35.4875 9.26187 35.6655 9.26187H37.0804C37.3398 9.26187 37.4904 9.13225 37.5312 8.87233L38.3721 3.5204C38.3856 3.4383 38.3651 3.36327 38.3105 3.29483C38.2556 3.22664 38.1874 3.19236 38.1054 3.19236ZM35.4295 7.2321C35.0809 7.57387 34.6605 7.74466 34.1685 7.74466C33.7718 7.74466 33.4509 7.63548 33.2047 7.41661C32.9585 7.19838 32.8355 6.89759 32.8355 6.51439C32.8355 6.00897 33.0064 5.58139 33.3483 5.23285C33.6895 4.88424 34.1137 4.71 34.6195 4.71C35.002 4.71 35.3199 4.82275 35.573 5.0482C35.8256 5.27384 35.9525 5.58484 35.9525 5.98139C35.9524 6.47346 35.7781 6.89051 35.4295 7.2321Z" fill="#FFFFFF"/>
<path d="M14.8088 3.19236H13.2503C13.0587 3.19236 12.9427 3.41799 12.9017 3.8692C12.5326 3.32253 11.8832 3.04883 10.9536 3.04883C9.96937 3.04883 9.13196 3.41799 8.44172 4.15619C7.75128 4.89439 7.40625 5.76271 7.40625 6.76052C7.40625 7.56722 7.6421 8.20966 8.11373 8.68794C8.58537 9.16672 9.21745 9.40565 10.0104 9.40565C10.393 9.40565 10.7897 9.32348 11.1997 9.15958C11.6098 8.99555 11.9379 8.77694 12.184 8.50342C12.1291 8.66732 12.1019 8.81091 12.1019 8.93382C12.1019 9.15281 12.1907 9.26187 12.3685 9.26187H13.7833C14.0429 9.26187 14.1934 9.13225 14.2345 8.87233L15.0751 3.5204C15.0886 3.4383 15.0682 3.36327 15.0136 3.29483C14.9589 3.22664 14.8907 3.19236 14.8088 3.19236ZM12.1328 7.24225C11.7842 7.57757 11.3568 7.74466 10.8513 7.74466C10.4546 7.74466 10.1368 7.63548 9.89774 7.41661C9.65838 7.19838 9.53886 6.89759 9.53886 6.51439C9.53886 6.00897 9.70965 5.58139 10.0515 5.23285C10.3931 4.88424 10.8169 4.70994 11.3229 4.70994C11.7054 4.70994 12.0233 4.82275 12.2764 5.0482C12.5291 5.27384 12.6557 5.58484 12.6557 5.98139C12.6557 6.48719 12.4814 6.90768 12.1328 7.24225Z" fill="#FFFFFF"/>
<path d="M30.4022 0.72101C29.8759 0.359119 29.1891 0.177734 28.3415 0.177734H25.0811C24.8076 0.177734 24.6572 0.307661 24.63 0.567265L23.2972 8.93326C23.2833 9.01543 23.3039 9.09057 23.3587 9.15889C23.4129 9.22733 23.4816 9.26136 23.5636 9.26136H25.245C25.409 9.26136 25.5183 9.17262 25.5732 8.99487L25.9423 6.61638C25.9559 6.50707 26.0037 6.4182 26.0859 6.34975C26.1679 6.28144 26.2703 6.23675 26.3935 6.21632C26.5164 6.19601 26.6324 6.18573 26.742 6.18573C26.8513 6.18573 26.9811 6.19269 27.1315 6.20629C27.2818 6.21989 27.3779 6.22659 27.4186 6.22659C28.5944 6.22659 29.5169 5.89535 30.1869 5.23211C30.8568 4.56925 31.1916 3.65005 31.1916 2.47412C31.1917 1.6676 30.9284 1.08321 30.4022 0.720821V0.72101ZM28.3005 4.09417C27.9997 4.29918 27.5485 4.40166 26.9472 4.40166L26.2909 4.42221L26.6395 2.22805C26.6666 2.07788 26.7555 2.00255 26.906 2.00255H27.275C27.5758 2.00255 27.815 2.01627 27.993 2.04354C28.1703 2.07099 28.3415 2.15629 28.5055 2.29976C28.6697 2.44335 28.7516 2.65193 28.7516 2.9252C28.7516 3.49956 28.601 3.88897 28.3005 4.09417Z" fill="#FFFFFF"/>
</svg>
