<svg xmlns="http://www.w3.org/2000/svg" xmlns:xlink="http://www.w3.org/1999/xlink"><defs><style>
    .sprite-symbol-usage {display: none;}
    .sprite-symbol-usage:target {display: inline;}
  </style><symbol fill="none" viewBox="0 0 8 5" id="arrow-down"><path d="M7.232 1.56A.687.687 0 1 0 6.26.59l.972.971ZM3.999 3.822l-.486.486a.687.687 0 0 0 .971 0L4 3.822ZM1.737.59a.687.687 0 1 0-.972.971L1.737.59Zm4.523 0L3.513 3.337l.971.971L7.232 1.56 6.26.59ZM4.484 3.337 1.737.589l-.972.971 2.748 2.748.971-.971Z" fill="currentColor" /></symbol><symbol fill="none" viewBox="0 0 24 24" id="basket"><path d="M19.82 8H4.18a1 1 0 0 0-.985 1.164l1.666 10a1 1 0 0 0 .987.836h12.305a1 1 0 0 0 .987-.836l1.666-10A1 1 0 0 0 19.82 8ZM8 8a4 4 0 1 1 8 0" stroke="currentColor" stroke-width="2" stroke-linecap="round" stroke-linejoin="round" /></symbol><symbol fill="none" viewBox="0 0 8 15" id="facebook"><path d="M5.105 8.064h2.481l.39-2.481H5.104V4.227c0-1.03.342-1.945 1.322-1.945H8V.117C7.723.08 7.139 0 6.033 0c-2.308 0-3.66 1.2-3.66 3.932v1.651H0v2.481h2.372v6.82c.47.069.946.116 1.435.116.441 0 .872-.04 1.298-.096v-6.84Z" fill="#fff" /></symbol><symbol fill="none" viewBox="0 0 24 25" id="info"><path d="M12.455 21.127a8.642 8.642 0 1 0 0-17.284 8.642 8.642 0 0 0 0 17.284ZM12.455 11.525v4.801" stroke="currentColor" stroke-width="1.44" stroke-linecap="round" stroke-linejoin="round" /><path d="M12.407 8.644h.096v.096h-.096v-.096Z" stroke="currentColor" stroke-width="1.44" stroke-linecap="round" stroke-linejoin="round" /></symbol><symbol fill="none" viewBox="0 0 16 16" id="instagram"><path d="M8 1.446h3.277c.771 0 1.157.193 1.446.289.385.193.675.29.964.578.289.29.482.579.578.964.096.29.193.675.29 1.446v6.554c0 .771-.194 1.157-.29 1.446-.193.385-.29.675-.578.964-.29.289-.579.482-.964.578-.29.096-.675.193-1.446.29H4.723c-.771 0-1.157-.194-1.446-.29-.385-.193-.675-.29-.964-.578-.289-.29-.482-.579-.578-.964-.096-.29-.193-.675-.29-1.446V4.723c0-.771.194-1.157.29-1.446.193-.385.29-.675.578-.964.29-.289.579-.482.964-.578.29-.096.675-.193 1.446-.29H8ZM8 0H4.723c-.868 0-1.446.193-1.928.386a4.209 4.209 0 0 0-1.446.963c-.482.482-.674.868-.963 1.446-.193.482-.29 1.06-.386 1.928v6.554c0 .868.193 1.446.386 1.928.192.482.481.964.963 1.446s.868.674 1.446.963c.482.193 1.06.29 1.928.386h6.554c.868 0 1.446-.193 1.928-.386a4.21 4.21 0 0 0 1.446-.963c.482-.482.674-.868.963-1.446.193-.482.29-1.06.386-1.928V4.723c0-.868-.193-1.446-.386-1.928a4.21 4.21 0 0 0-.963-1.446c-.482-.482-.868-.674-1.446-.963-.482-.193-1.06-.29-1.928-.386H8Z" fill="#fff" /><path d="M8 3.855A4.114 4.114 0 0 0 3.855 8 4.114 4.114 0 0 0 8 12.145 4.114 4.114 0 0 0 12.145 8 4.114 4.114 0 0 0 8 3.855ZM8 10.7A2.694 2.694 0 0 1 5.301 8 2.694 2.694 0 0 1 8 5.301 2.694 2.694 0 0 1 10.699 8c0 1.446-1.253 2.699-2.699 2.699ZM12.241 4.723a.964.964 0 1 0 0-1.928.964.964 0 0 0 0 1.928Z" fill="#fff" /></symbol><symbol fill="none" viewBox="0 0 16 17" id="play"><path d="M14.244 9.079a.96.96 0 0 0 0-1.695L2.84 1.303a.96.96 0 0 0-1.412.847v12.163a.96.96 0 0 0 1.412.847L14.244 9.08Z" stroke="#4BB4DD" stroke-width="1.92" stroke-linecap="round" stroke-linejoin="round" /></symbol><symbol fill="none" viewBox="0 0 21 21" id="plus"><path d="M5.469 10.265h10.127M10.533 15.329V5.201" stroke="currentColor" stroke-width="1.688" stroke-linecap="round" stroke-linejoin="round" /></symbol><symbol fill="none" viewBox="0 0 17 17" id="send"><path d="m10.442 15.306-.67.336.67-.336Zm1.542-.127-.717-.22.717.22ZM7.278 9.35l-.336.67.336-.67Zm.372.373.671-.336-.67.336ZM1.822 5.016l.22.717-.22-.717Zm-.128 1.542-.335.671.335-.67ZM14.996.963l.22.717-.22-.717Zm1.042 1.041.716.221-.716-.22ZM14.775.246 1.601 4.3l.441 1.433L15.217 1.68 14.775.246ZM1.36 7.229l5.583 2.792.671-1.342L2.03 5.887 1.359 7.23Zm5.62 2.83 2.792 5.583 1.342-.671L8.32 9.387l-1.341.671Zm5.722 5.34 4.053-13.174-1.433-.441-4.054 13.174 1.434.441Zm-2.93.243c.64 1.277 2.51 1.123 2.93-.243l-1.434-.44c-.009.028-.02.037-.025.041a.092.092 0 0 1-.048.017.093.093 0 0 1-.05-.009c-.006-.003-.018-.01-.031-.037l-1.342.67ZM6.942 10.02c.016.008.03.021.038.037l1.341-.67a1.583 1.583 0 0 0-.708-.709l-.67 1.342ZM1.602 4.3c-1.366.42-1.52 2.29-.243 2.93l.67-1.343c-.026-.013-.033-.025-.037-.031a.092.092 0 0 1-.008-.05A.092.092 0 0 1 2 5.758c.005-.005.014-.016.042-.025L1.602 4.3Zm13.615-2.62a.076.076 0 0 1 .044-.003c.012.003.026.01.039.023.013.013.02.028.023.04a.076.076 0 0 1-.002.044l1.433.441c.374-1.215-.764-2.353-1.979-1.979l.442 1.434Z" fill="#6AC4E6" /></symbol><symbol fill="none" viewBox="0 0 18 15" id="star"><path d="m8.746 11.45 3.62-.832 1.513 4.228-5.133-3.396Zm8.332-5.465h-6.373L8.745.543 6.788 5.985H.413L5.571 9.36 3.612 14.8l5.158-3.373 3.175-2.07 5.133-3.373Z" fill="currentColor" /></symbol><symbol fill="none" viewBox="0 0 17 18" id="tiktok"><path d="M16.209 4.275A4.275 4.275 0 0 1 11.934 0H8.88v11.96a2.597 2.597 0 1 1-1.864-2.495V6.496a5.512 5.512 0 1 0 4.776 5.463l.089-6.045a7.296 7.296 0 0 0 4.328 1.415V4.275Z" fill="#fff" /></symbol></defs><use id="arrow-down-usage" xlink:href="#arrow-down" class="sprite-symbol-usage" /><use id="basket-usage" xlink:href="#basket" class="sprite-symbol-usage" /><use id="facebook-usage" xlink:href="#facebook" class="sprite-symbol-usage" /><use id="info-usage" xlink:href="#info" class="sprite-symbol-usage" /><use id="instagram-usage" xlink:href="#instagram" class="sprite-symbol-usage" /><use id="play-usage" xlink:href="#play" class="sprite-symbol-usage" /><use id="plus-usage" xlink:href="#plus" class="sprite-symbol-usage" /><use id="send-usage" xlink:href="#send" class="sprite-symbol-usage" /><use id="star-usage" xlink:href="#star" class="sprite-symbol-usage" /><use id="tiktok-usage" xlink:href="#tiktok" class="sprite-symbol-usage" /></svg>